<svg width="201" height="201" viewBox="0 0 201 201" fill="none" xmlns="http://www.w3.org/2000/svg">
<g clip-path="url(#clip0_6_6943)">
<path d="M13.5685 90.8244L17.2821 104.964C18.44 109.372 30.0742 111.459 28.4238 117.969C27.2559 122.575 26.64 125.862 26.3096 130.734C25.6356 140.67 29.6283 150.088 35.6493 157.693C41.6093 165.221 50.7296 155.036 54.3282 149.337C58.8377 142.197 65.8471 144.089 73.2712 143.363C82.6049 142.451 83.6995 151.56 91.0413 157.693C96.4609 162.22 106.397 159.395 108.25 166.448C110.301 174.257 111.9 182.39 121.291 182.041C125.826 181.872 130.284 180.498 134.839 180.298C140.071 180.068 144.742 180.148 149.812 178.816C160.648 175.97 171.595 169.812 179.102 161.319C182.884 157.04 174.65 149.874 173.556 145.71C171.588 138.217 182.638 135.547 186.108 130.884C189.942 125.732 193.096 117.928 191.413 111.517C190.341 107.436 189.278 104.583 185.76 102.38C178.726 97.9766 182.178 86.1609 183.854 79.6419C185.933 71.5552 187.567 64.4723 190.927 56.8597C193.64 50.7131 194.064 47.2978 192.408 40.9933C190.744 34.6588 186.04 31.376 181.356 26.7842C178.967 24.4416 176.153 22.777 173.184 25.2543C169.837 28.0455 166.115 29.232 161.925 30.2085C159.123 30.8613 156.425 29.5656 154.074 28.1855C150.193 25.9071 145.998 24.4282 142.018 22.3649C136.156 19.3258 129.597 14.1411 123.192 12.7851C115.841 11.2286 106.065 11.221 98.6466 11.8788C96.8584 12.0374 94.9396 12.2931 93.1757 11.8633C86.7977 10.3091 78.528 13.2263 73.135 16.5822C68.6575 19.3685 64.6133 22.3969 61.4456 26.7785C58.036 31.4947 55.4969 32.8344 49.7856 34.3345C43.5943 35.9606 35.7154 37.4649 31.9502 43.1493C29.3918 47.0119 25.2936 50.3055 26.2248 55.4103C27.1214 60.3256 28.5354 66.3123 28.7315 71.3189C28.857 74.5225 19.0636 78.1132 16.7544 80.5921C13.3035 84.2968 12.2404 85.768 13.5685 90.8244Z" fill="#F4F7FA"/>
<path d="M116.761 27.2698C114.479 25.3141 109.549 26.3237 107.4 27.5032C106.069 28.1975 105.192 28.2867 104.1 28.0728C103.696 27.991 103.276 28.0128 102.883 28.1357C102.488 28.2588 102.131 28.4793 101.845 28.7768C101.653 28.9906 101.427 29.1719 101.176 29.3134C100.642 29.641 99.9407 29.7791 99.3883 29.4846C98.0609 28.2451 95.9585 28.2415 94.2864 28.6876C92.0753 29.8488 90.0794 31.4182 87.9538 32.7359C87.0982 33.347 86.1557 33.8042 85.1021 33.886C85.525 35.1083 85.6325 36.3771 85.6448 37.6593C88.956 37.8622 90.6416 34.2711 93.2415 32.7359C95.4416 31.3913 98.0084 32.4914 100.453 33.2248C102.531 33.7137 103.997 32.1247 105.709 31.2691C106.931 30.5357 108.642 31.8803 110.109 31.2691C111.698 30.5357 112.798 29.069 114.265 27.9689C114.716 27.6303 116.928 28.3429 117.415 28.2134C117.202 27.5655 117.267 28.4297 116.761 27.2698Z" fill="#1B5EC9"/>
<path d="M83.0472 36.2159C83.5361 37.7022 85.5175 38.2156 86.9916 37.6826C88.4656 37.1497 89.5498 35.9274 90.612 34.7736C91.6742 33.6197 92.8659 32.4512 94.4011 32.1346C97.5461 31.4868 101.207 34.5731 103.717 32.571C104.431 32.0026 104.959 31.0529 105.869 30.9698C106.333 30.9282 106.779 31.1372 107.233 31.2534C109.54 31.8449 111.703 30.0311 113.443 28.4078C114.256 27.6476 115.473 26.8616 116.377 27.5131C116.8 27.8175 116.98 28.3479 117.138 28.8442C123.676 49.475 130.216 70.1053 136.756 90.7352C136.785 90.8269 132.653 91.5774 132.275 91.6263C130.725 91.8189 129.164 91.9213 127.602 91.9331C124.462 91.9636 121.328 91.6788 118.216 91.2816C115.038 90.877 111.881 90.3514 108.713 89.8943C105.575 89.4408 102.423 89.0485 99.2536 88.9165C96.1612 88.7942 93.048 88.9164 90.0008 89.4885C89.331 89.6107 88.4302 90.0214 87.7579 89.9774C87.0478 89.9334 87.1003 88.6622 86.9977 88.1134C86.6628 86.3166 86.3483 84.5165 86.054 82.7133C85.4633 79.0904 84.9561 75.4544 84.5323 71.8055C84.1094 68.1753 83.7701 64.5369 83.5141 60.8904C83.2567 57.2235 83.0826 53.5566 82.9922 49.8897C82.9026 46.2366 82.8969 42.5825 82.9751 38.9269C82.993 38.024 83.0171 37.1204 83.0472 36.2159Z" fill="white"/>
<path d="M127.137 92.4245C124.528 92.4245 121.656 92.2131 118.153 91.7669C116.108 91.5053 114.039 91.1912 112.042 90.8869C110.928 90.717 109.778 90.5422 108.646 90.3784C105.851 89.9738 102.546 89.5423 99.235 89.4005C95.8419 89.26 92.8534 89.4445 90.0922 89.964C89.8783 90.0044 89.6253 90.0863 89.3589 90.162C88.8149 90.3258 88.2514 90.4957 87.732 90.4639C86.7541 90.404 86.6319 89.2575 86.5659 88.573C86.5512 88.4288 86.5378 88.2944 86.5207 88.2064C86.1858 86.4132 85.868 84.5932 85.5746 82.7965C84.9855 79.1821 84.4745 75.5042 84.0492 71.8655C83.6287 68.2475 83.2853 64.5671 83.0298 60.9284C82.7743 57.2896 82.5971 53.5628 82.5067 49.9032C82.4162 46.2437 82.4113 42.5609 82.4895 38.9197C82.5079 38.0164 82.5335 37.1021 82.5629 36.2001C82.5669 36.0857 82.611 35.9761 82.6875 35.8909C82.7639 35.8056 82.868 35.75 82.9813 35.7335C83.0946 35.717 83.2102 35.741 83.3077 35.801C83.4053 35.861 83.4786 35.9534 83.515 36.0619C83.5988 36.2942 83.7286 36.5071 83.8965 36.6879C84.0646 36.8688 84.2674 37.0137 84.4929 37.1143C85.2282 37.455 86.0672 37.4962 86.8324 37.2292C88.1231 36.7672 89.1315 35.6671 90.1057 34.6037L90.2536 34.4424C91.3231 33.2763 92.6077 32.0039 94.3018 31.6556C95.7686 31.3537 97.2818 31.7778 98.7412 32.1983C100.585 32.7214 102.177 33.1761 103.412 32.1885C103.619 32.0147 103.813 31.8273 103.994 31.6275C104.473 31.1263 105.016 30.5567 105.828 30.4834C106.267 30.4443 106.664 30.5689 107.017 30.6789C107.139 30.7168 107.248 30.7511 107.358 30.7804C109.414 31.306 111.406 29.6473 113.113 28.051C114.475 26.7774 115.737 26.4461 116.666 27.116C117.237 27.5279 117.451 28.2038 117.607 28.6976L137.221 90.5874C137.243 90.6562 137.249 90.7289 137.241 90.8006C137.231 90.8721 137.207 90.9408 137.167 91.0017C137.031 91.2169 137.009 91.2462 134.723 91.685C133.745 91.872 132.559 92.0823 132.339 92.1104C130.77 92.3064 129.191 92.4106 127.609 92.4221L127.137 92.4245ZM97.096 88.3824C97.8049 88.3824 98.531 88.3979 99.2741 88.4288C102.627 88.5669 105.962 89.0021 108.782 89.4067C109.918 89.5704 111.07 89.7465 112.185 89.9164C114.181 90.2195 116.244 90.5275 118.278 90.7927C121.945 91.2609 124.909 91.4662 127.597 91.4406C129.141 91.4288 130.682 91.3276 132.213 91.1374C132.572 91.091 135.105 90.6277 136.138 90.404L116.666 28.9922C116.515 28.5216 116.369 28.1146 116.084 27.9092C115.351 27.3812 114.128 28.4311 113.771 28.7648C112.572 29.8869 110.471 31.8536 108.12 31.8548C107.777 31.8549 107.436 31.8119 107.105 31.7265C106.971 31.6922 106.841 31.6519 106.715 31.6128C106.424 31.5211 106.15 31.4356 105.907 31.4576C105.465 31.4979 105.109 31.8707 104.697 32.3022C104.486 32.5343 104.258 32.752 104.017 32.9536C102.389 34.2529 100.396 33.687 98.4699 33.1382C97.1253 32.7556 95.7282 32.3596 94.4937 32.6126C93.0856 32.9023 91.9355 34.0513 90.9686 35.1037L90.8219 35.2638C89.7671 36.4152 88.6756 37.6069 87.155 38.1496C86.1414 38.5019 85.0303 38.4454 84.0577 37.992C83.8579 37.8959 83.6686 37.7792 83.493 37.6436C83.482 38.0763 83.471 38.5102 83.4625 38.9405C83.3855 42.567 83.3904 46.2473 83.4796 49.88C83.5688 53.5127 83.7436 57.2138 84.0003 60.8599C84.257 64.506 84.5968 68.1485 85.016 71.7518C85.4377 75.3759 85.9486 79.0391 86.5353 82.6388C86.8275 84.4282 87.1465 86.2409 87.4777 88.0279C87.5022 88.1599 87.5181 88.3151 87.534 88.4789C87.5975 89.0901 87.6782 89.4372 87.7784 89.491C88.1341 89.513 88.612 89.3688 89.0753 89.2306C89.3498 89.1418 89.6289 89.0675 89.9113 89.0082C92.2815 88.576 94.6868 88.3665 97.096 88.3824Z" fill="black"/>
<path d="M92.3435 36.6607C91.9548 37.4136 92.3545 38.7239 93.1551 39.0001C93.9557 39.2764 95.0961 38.7948 95.4775 38.037C95.8588 37.2791 95.5618 36.1253 94.8296 35.7146C93.7357 35.1157 92.9339 35.5251 92.3435 36.6607ZM107.86 33.1918C107.127 33.9252 107.386 35.3736 108.331 35.8038C109.276 36.2341 110.54 35.4787 110.609 34.4422C110.679 33.4057 109.528 32.4865 108.531 32.7896L107.86 33.1918Z" fill="#1B5EC9"/>
<path d="M93.484 36.7719C93.3734 36.772 93.2661 36.7345 93.1794 36.6657C93.0929 36.5969 93.0323 36.5008 93.0073 36.393C92.4377 33.9252 92.3008 31.8057 92.5893 29.9148C92.956 27.5301 94.0255 25.4644 95.6072 24.0955C96.6803 23.1689 98.0371 22.5065 99.6407 22.1117C100.69 21.8562 101.533 21.8134 102.292 21.9748C104.404 22.427 105.686 24.4084 106.467 25.8592C107.741 28.2238 108.677 30.7549 109.248 33.3788C109.261 33.4415 109.262 33.5064 109.251 33.5696C109.24 33.6329 109.217 33.6933 109.182 33.7473C109.148 33.8015 109.102 33.8482 109.05 33.8848C108.997 33.9215 108.937 33.9475 108.875 33.9612C108.811 33.9749 108.747 33.9761 108.684 33.9649C108.621 33.9535 108.56 33.9298 108.506 33.8951C108.452 33.8605 108.406 33.8155 108.369 33.7627C108.332 33.71 108.305 33.6505 108.292 33.5878C107.739 31.0524 106.834 28.6069 105.603 26.3225C104.503 24.2874 103.389 23.2105 102.084 22.9318C101.473 22.801 100.77 22.8426 99.8669 23.0614C98.416 23.4134 97.1961 24.0111 96.2428 24.8349C94.8359 26.0511 93.8801 27.9078 93.5537 30.0615C93.2848 31.8301 93.4168 33.8286 93.9583 36.173C93.9748 36.2447 93.975 36.3192 93.9588 36.3909C93.9425 36.4627 93.9102 36.5299 93.8644 36.5874C93.8186 36.645 93.7604 36.6915 93.6941 36.7235C93.6278 36.7554 93.5552 36.7719 93.4816 36.7719H93.484Z" fill="black"/>
<path d="M95.5368 29.8159C95.4297 29.8161 95.3257 29.7811 95.2404 29.7164C95.1552 29.6518 95.0936 29.5608 95.065 29.4578C94.5639 27.6574 94.4441 26.1075 94.6983 24.719C94.998 23.0021 95.9552 21.4696 97.3666 20.447C98.2992 19.7784 99.4787 19.2968 100.869 19.0169C101.776 18.8336 102.505 18.803 103.159 18.9192C105.004 19.2443 106.135 20.6866 106.815 21.7488C107.91 23.423 108.731 25.2618 109.245 27.1953C109.271 27.3189 109.249 27.4481 109.183 27.5558C109.117 27.6635 109.012 27.7413 108.89 27.773C108.767 27.8045 108.637 27.7875 108.527 27.7254C108.417 27.6633 108.335 27.5609 108.298 27.4398C107.812 25.6066 107.035 23.8631 105.996 22.2756C105.063 20.8394 104.107 20.0754 102.99 19.8811C102.458 19.787 101.847 19.8163 101.064 19.974C99.8099 20.227 98.7576 20.6524 97.9374 21.2403C96.7322 22.1161 95.9158 23.4271 95.6615 24.895C95.4329 26.1344 95.5466 27.54 96.0074 29.1938C96.0277 29.2664 96.031 29.3428 96.0169 29.417C96.0029 29.491 95.9718 29.561 95.9262 29.6211C95.8806 29.6812 95.8218 29.73 95.7542 29.7636C95.6867 29.7972 95.6122 29.8147 95.5368 29.8147V29.8159ZM93.6824 62.2068C93.5309 62.2068 93.3793 62.2068 93.229 62.1909C91.1071 62.0479 89.138 60.8232 88.2102 59.0728C87.2972 57.3482 87.3143 55.126 88.2579 52.9748C89.6428 49.8164 91.4493 48.1137 93.6262 47.9133C96.4876 47.6505 100.254 48.6271 101.455 52.2451C102.343 54.9256 101.254 58.2209 98.8051 60.2609C97.3029 61.5077 95.4597 62.2068 93.6824 62.2068ZM89.0744 58.6157C89.8469 60.0739 91.5031 61.0945 93.295 61.2155C94.961 61.3292 96.7406 60.7071 98.1842 59.5043C100.332 57.7161 101.297 54.8596 100.531 52.5482C99.5116 49.4741 96.2273 48.6515 93.7216 48.8813C91.9248 49.0463 90.3896 50.5534 89.1575 53.3623C88.3349 55.2373 88.3019 57.1514 89.0793 58.6096L89.0744 58.6157Z" fill="black"/>
<path d="M101.763 52.7744C101.726 52.7739 101.691 52.7698 101.654 52.7622C101.528 52.7331 101.418 52.6551 101.35 52.5453C101.281 52.4355 101.259 52.303 101.287 52.1767C101.41 51.6405 101.691 51.1534 102.093 50.7786C102.496 50.4039 103.001 50.1588 103.545 50.0753C104.089 49.9917 104.645 50.0735 105.141 50.3101C105.637 50.5466 106.052 50.927 106.329 51.4018C106.368 51.4573 106.394 51.5201 106.407 51.5863C106.42 51.6525 106.419 51.7207 106.404 51.7864C106.389 51.8522 106.361 51.9142 106.321 51.9685C106.282 52.0229 106.23 52.0684 106.173 52.1023C106.114 52.136 106.049 52.1574 105.982 52.1651C105.915 52.1727 105.848 52.1663 105.783 52.1465C105.718 52.1266 105.659 52.0936 105.608 52.0496C105.557 52.0056 105.515 51.9514 105.486 51.8907C105.307 51.5855 105.041 51.341 104.721 51.1891C104.402 51.037 104.044 50.9846 103.694 51.0383C103.344 51.092 103.019 51.2496 102.76 51.4905C102.501 51.7313 102.32 52.0446 102.241 52.3894C102.217 52.4985 102.156 52.5962 102.07 52.6662C101.983 52.7363 101.875 52.7744 101.763 52.7744Z" fill="black"/>
<path d="M111.045 56.2421H110.929C108.818 56.2029 106.815 55.0051 105.943 53.2621C104.865 51.1047 105.526 48.643 106.272 46.9563C106.87 45.6032 107.633 44.5117 108.538 43.7269C110.168 42.3054 112.021 41.7248 113.897 42.0475C114.969 42.247 115.967 42.7278 116.792 43.4408C117.616 44.1536 118.236 45.0729 118.588 46.1043C119.444 48.7188 118.515 51.8956 116.288 54.0101C114.787 55.4317 112.882 56.2421 111.045 56.2421ZM112.879 42.9361C111.588 42.9361 110.35 43.447 109.186 44.4628C108.388 45.1583 107.711 46.13 107.172 47.3498C106.63 48.5721 105.866 50.9116 106.822 52.8233C107.536 54.2497 109.196 55.2312 110.952 55.2679H111.05C112.639 55.2679 114.299 54.5553 115.619 53.3024C117.575 51.4433 118.401 48.6736 117.664 46.4087C117.368 45.5455 116.849 44.7764 116.157 44.1803C115.466 43.5843 114.629 43.1828 113.732 43.0168C113.449 42.9653 113.162 42.9383 112.874 42.9361H112.879Z" fill="black"/>
<path d="M90.2881 54.4672C89.743 56.1136 90.1561 58.1658 91.5984 59.129C92.6068 59.8037 93.9379 59.8477 95.1003 59.503C96.957 58.9518 98.5301 57.3616 98.8259 55.4474C98.9278 54.754 98.8707 54.0466 98.659 53.3785C98.4472 52.7103 98.0864 52.0992 97.6036 51.5911C96.6881 50.6426 94.6921 49.6354 93.4588 50.535C92.1216 51.508 90.8149 52.8757 90.2881 54.4672Z" fill="#FACBDF"/>
<path d="M92.5036 57.0217C92.418 57.0212 92.3342 56.9982 92.2602 56.9551C92.1863 56.9119 92.125 56.8502 92.0824 56.776C92.0398 56.7017 92.0175 56.6176 92.0176 56.5321C92.0178 56.4465 92.0403 56.3624 92.0831 56.2883L94.3737 52.4149C94.4397 52.3032 94.5474 52.2222 94.6729 52.19C94.7985 52.1577 94.9319 52.1765 95.0435 52.2425C95.1552 52.3085 95.2361 52.4161 95.2684 52.5417C95.3008 52.6674 95.2818 52.8006 95.2158 52.9124L92.924 56.7858C92.8804 56.8582 92.8187 56.9178 92.745 56.9593C92.6713 57.0006 92.5881 57.0221 92.5036 57.0217ZM95.0571 56.5915C94.9947 56.5915 94.933 56.5799 94.8749 56.5572C94.7547 56.5088 94.6586 56.4148 94.6078 56.2955C94.5569 56.1764 94.5553 56.0419 94.6036 55.9216C94.9196 55.1349 95.3997 54.4245 96.0117 53.8376C96.0579 53.7923 96.1126 53.7566 96.1728 53.7325C96.2328 53.7084 96.2971 53.6966 96.3619 53.6977C96.4266 53.6987 96.4905 53.7125 96.5499 53.7384C96.6091 53.7643 96.6628 53.8017 96.7075 53.8485C96.7523 53.8953 96.7872 53.9504 96.8106 54.011C96.8338 54.0713 96.8448 54.1358 96.843 54.2005C96.8411 54.2652 96.8265 54.3289 96.7997 54.3879C96.773 54.4468 96.7349 54.5 96.6876 54.5441C96.1764 55.0344 95.7752 55.6277 95.5105 56.2847C95.4742 56.3752 95.4117 56.4529 95.3307 56.5075C95.2499 56.5621 95.1546 56.5915 95.0571 56.5915Z" fill="black"/>
<path d="M74.9479 90.4418C68.8072 70.7592 63.9747 50.6922 60.482 30.372C60.4245 30.0358 60.3683 29.6814 60.4918 29.3636C60.6336 28.9969 60.9807 28.7524 61.3193 28.5532C64.1978 26.8065 67.5224 25.9668 70.7896 25.1515L82.9772 22.1056C83.4416 21.9907 83.9293 21.8745 84.3913 21.998C85.4266 22.2755 85.786 23.532 85.9693 24.5868C89.8636 47.0905 92.5869 69.8118 97.7095 92.0735C90.4955 91.882 83.2811 91.9901 76.0663 92.3974L73.3369 84.4366L74.9479 90.4418Z" fill="white"/>
<path d="M76.0667 92.8865C75.9649 92.8864 75.8656 92.8546 75.7829 92.7954C75.7 92.7363 75.6377 92.6526 75.6046 92.5565L75.0424 90.9186C74.9235 90.9431 74.7996 90.9226 74.695 90.8609C74.5904 90.7993 74.5125 90.7009 74.4765 90.5849C68.3359 70.8813 63.5002 50.7946 60.0008 30.4552C59.9421 30.1117 59.8602 29.6411 60.0362 29.1864C60.2257 28.6975 60.6474 28.3919 61.0654 28.1353C64.0332 26.3348 67.4079 25.4914 70.6715 24.6774L82.859 21.6265C83.3332 21.5043 83.9236 21.3613 84.5189 21.5214C85.8499 21.8783 86.2594 23.3915 86.4513 24.4989C87.7298 31.8938 88.9008 39.4244 90.0339 46.7081C92.3562 61.6201 94.7483 77.0272 98.1854 91.9636C98.2021 92.0364 98.202 92.1119 98.1851 92.1846C98.1681 92.2572 98.1348 92.3251 98.0876 92.3829C98.0404 92.4407 97.9806 92.4869 97.9128 92.5181C97.8451 92.5492 97.771 92.5644 97.6964 92.5626C90.5265 92.3743 83.2599 92.4843 76.0985 92.8865H76.0667ZM73.4864 83.971C73.5588 83.9943 73.6248 84.0341 73.6792 84.0874C73.7334 84.1407 73.7746 84.2058 73.7993 84.2778L76.4089 91.8891C83.2672 91.5126 90.2209 91.4002 97.0877 91.5676C93.7166 76.7888 91.3515 61.5761 89.0621 46.8572C87.9303 39.5772 86.7593 32.0478 85.482 24.67C85.251 23.3255 84.8623 22.6313 84.2597 22.4699C83.9089 22.3758 83.4738 22.4846 83.09 22.5811L70.9086 25.6259C67.7159 26.4228 64.4145 27.2479 61.5727 28.9713C61.3172 29.1265 61.0361 29.3111 60.9481 29.5397C60.876 29.7267 60.9114 29.9785 60.964 30.2889C64.0834 48.4135 68.2665 66.3389 73.4913 83.9723L73.4864 83.971Z" fill="black"/>
<path d="M71.055 35.5802C70.5428 36.7291 70.566 38.0358 70.6052 39.2947C70.7494 44.2389 70.8973 49.2235 72.0915 54.0173C73.2857 58.8112 75.6288 63.473 79.4705 66.585C80.089 67.0849 80.815 67.5628 81.6071 67.5115C82.8294 67.4308 83.5908 66.1743 84.0431 65.0375C85.9425 60.2498 86.1088 54.8864 85.1016 49.8358C84.0944 44.7853 81.9627 40.0159 79.3984 35.5496C78.6735 34.2882 77.9316 33.8384 76.5785 33.1735C75.333 32.5623 73.6071 32.863 72.6305 33.6379C71.9567 34.1491 71.4162 34.8154 71.055 35.5802Z" fill="#FF8D55"/>
<path d="M75.0019 53.4722C74.8877 53.4721 74.7772 53.4321 74.6894 53.3591C74.6017 53.2862 74.5423 53.1847 74.5215 53.0725C73.8602 49.5095 73.3713 45.8732 73.0682 42.2625C72.913 40.4107 72.809 38.6091 73.2454 36.9137C73.3222 36.5965 73.4812 36.3053 73.7066 36.0691C73.9319 35.8331 74.2155 35.6606 74.5288 35.5692C74.9616 35.4445 75.4184 35.4278 75.8592 35.5202C76.2999 35.6127 76.7115 35.8116 77.0578 36.0997C78.016 36.9211 78.3742 38.1703 78.6626 39.1738L81.7257 49.8481C81.7758 50.0204 81.892 50.4238 81.6536 50.7709C81.5209 50.9481 81.3357 51.0789 81.1243 51.1449L75.1779 53.4343C75.122 53.4578 75.0624 53.4706 75.0019 53.4722ZM75.2708 36.4419C75.1192 36.4406 74.9684 36.4625 74.8234 36.5067C74.6693 36.5479 74.5292 36.63 74.4181 36.7446C74.307 36.8591 74.2291 37.0016 74.1927 37.157C73.7942 38.7044 73.8945 40.4168 74.0424 42.1806C74.3271 45.5627 74.7757 48.9692 75.3771 52.3147L80.7723 50.2368L80.8114 50.2221C80.8114 50.1977 80.798 50.1647 80.7858 50.1219L77.7227 39.4488C77.4709 38.5699 77.1568 37.4772 76.4209 36.8477C76.0954 36.5843 75.6894 36.4411 75.2708 36.4419Z" fill="white"/>
<path d="M76.8745 57.2199C76.7619 57.2194 76.6531 57.1802 76.5661 57.1087C76.4792 57.0373 76.4197 56.938 76.3974 56.8277C76.3751 56.7174 76.3916 56.6029 76.444 56.5032C76.4964 56.4036 76.5815 56.3253 76.685 56.2812C78.9151 55.3443 81.2257 54.6124 83.5886 54.0945C83.6519 54.0787 83.7178 54.0759 83.7823 54.086C83.8468 54.0962 83.9087 54.119 83.9642 54.1535C84.0197 54.188 84.0677 54.2332 84.1055 54.2865C84.1431 54.3398 84.1699 54.4 84.1838 54.4638C84.1979 54.5277 84.1991 54.5935 84.1872 54.6577C84.1754 54.722 84.1507 54.7831 84.1149 54.8378C84.0789 54.8923 84.0325 54.9391 83.9782 54.9754C83.924 55.0117 83.863 55.0367 83.7988 55.0491C81.4938 55.5557 79.2393 56.2696 77.0627 57.182C77.0031 57.2069 76.9391 57.2198 76.8745 57.2199Z" fill="black"/>
<path d="M108.407 41.1832C108.352 40.3276 108.305 39.4304 108.672 38.6628C109.331 37.2792 111.015 36.8587 112.491 36.6142C130.277 33.6736 148.429 33.7013 166.207 36.6961C166.679 36.7756 167.185 36.8807 167.501 37.2547C167.868 37.6996 167.823 38.3548 167.754 38.9378C165.793 55.676 163.592 72.3807 161.154 89.052C161.087 89.5128 161.007 90.0005 160.718 90.3574C160.33 90.8317 159.68 90.9503 159.085 91.0309C147.376 92.6199 135.494 91.6042 123.744 90.3856C120.558 90.0555 116.643 89.8013 113.945 87.7992C113.137 87.2002 112.801 86.3666 112.621 85.3827C112.295 83.6018 112.151 81.7708 111.939 79.9728C111.45 75.8381 110.998 71.6994 110.583 67.5567C110.167 63.414 109.784 59.2674 109.435 55.1174C109.086 50.9509 108.774 46.781 108.495 42.6072C108.469 42.1345 108.44 41.6599 108.407 41.1832Z" fill="white"/>
<path d="M146.134 92.3425C138.723 92.3425 131.263 91.6605 123.698 90.8758L122.981 90.8036C119.833 90.4871 116.259 90.1302 113.658 88.1965C112.616 87.4228 112.301 86.3361 112.143 85.4744C111.899 84.1653 111.76 82.8208 111.621 81.5203C111.568 81.0228 111.515 80.5266 111.456 80.0328C110.968 75.9124 110.515 71.7321 110.1 67.6093C109.684 63.4865 109.298 59.2916 108.953 55.1615C108.606 51.013 108.289 46.8009 108.012 42.6439C107.98 42.1688 107.95 41.693 107.919 41.2163C107.865 40.39 107.797 39.3596 108.231 38.4539C108.973 36.8967 110.76 36.4065 112.411 36.1315C130.25 33.1695 148.459 33.1971 166.289 36.2134C166.868 36.3112 167.467 36.4481 167.878 36.9468C168.367 37.5347 168.32 38.3145 168.244 38.999C166.289 55.6614 164.071 72.5279 161.644 89.1291C161.578 89.5801 161.489 90.1998 161.104 90.6716C160.615 91.2828 159.84 91.4282 159.157 91.5211C154.839 92.0884 150.489 92.3628 146.134 92.3425ZM108.894 41.1539C108.926 41.6282 108.957 42.1033 108.987 42.5791C109.265 46.7349 109.58 50.936 109.927 55.0808C110.272 59.2048 110.661 63.3863 111.073 67.5103C111.485 71.6344 111.943 75.8024 112.428 79.9191C112.487 80.4166 112.539 80.9153 112.593 81.4164C112.73 82.6986 112.872 84.026 113.105 85.2984C113.295 86.3288 113.633 86.9607 114.241 87.4105C116.629 89.1841 120.057 89.5276 123.079 89.8307L123.799 89.9028C135.747 91.1422 147.431 92.125 159.022 90.5494C159.542 90.4797 160.072 90.3832 160.342 90.0519C160.54 89.8075 160.606 89.4408 160.673 88.9849C163.097 72.3922 165.318 55.5355 167.274 38.8829C167.33 38.394 167.37 37.8586 167.13 37.5677C166.933 37.3318 166.545 37.2499 166.131 37.1802C148.408 34.1817 130.308 34.1541 112.575 37.0983C111.108 37.3428 109.666 37.7266 109.118 38.8743C108.819 39.5014 108.841 40.2458 108.899 41.1539H108.894Z" fill="black"/>
<path d="M128.483 56.9973C124.797 60.5872 128.231 69.6139 133.435 66.8442C133.758 66.6778 134.114 66.582 134.478 66.5629C134.843 66.544 135.206 66.6024 135.545 66.7341C137.083 67.3074 138.497 66.7818 139.579 66.1132C141.317 65.0388 143.188 62.0796 143.192 59.3209C143.192 55.1468 139.688 54.3009 137.213 55.335C136.122 55.8313 135.685 56.6331 134.97 56.7113C134.255 56.7895 134.019 56.0158 132.884 55.8068C131.37 55.6064 129.652 55.9633 128.483 56.9973Z" fill="black"/>
<path d="M134.69 57.8664C134.632 57.8663 134.575 57.8559 134.521 57.8359C134.4 57.7913 134.301 57.7002 134.246 57.5826C134.191 57.465 134.186 57.3306 134.23 57.2088C135.226 54.4831 137.676 50.8627 140.696 49.3593C140.754 49.3307 140.816 49.3135 140.881 49.309C140.944 49.3046 141.009 49.3128 141.07 49.3331C141.13 49.3535 141.188 49.3857 141.235 49.4278C141.284 49.4699 141.323 49.5212 141.353 49.5787C141.381 49.6361 141.398 49.6987 141.403 49.7627C141.406 49.8268 141.399 49.8911 141.378 49.9519C141.357 50.0128 141.326 50.0692 141.284 50.1176C141.241 50.1661 141.19 50.2058 141.133 50.2344C138.475 51.5569 136.11 54.9134 135.143 57.545C135.109 57.6382 135.048 57.719 134.967 57.7764C134.885 57.8338 134.789 57.8652 134.69 57.8664Z" fill="black"/>
<path d="M136.178 50.1843C135.689 49.006 134.42 48.3851 133.255 47.868L131.287 46.9941C131.145 46.9136 130.983 46.8775 130.82 46.8902C130.434 46.9623 130.368 47.4818 130.403 47.868C130.543 49.4423 130.84 51.057 131.722 52.3673C132.361 53.3158 133.366 54.0785 134.502 54.3022C134.95 54.3914 135.34 54.4085 135.593 53.9856C135.868 53.5248 136.06 52.9234 136.204 52.4113C136.411 51.6877 136.473 50.8993 136.178 50.1843Z" fill="#1B5EC9"/>
<path d="M135.822 55.021C135.741 55.021 135.662 55.0008 135.59 54.9624C135.519 54.9241 135.459 54.8686 135.414 54.801C134.741 53.7803 133.547 51.8675 133.107 50.562C133.086 50.5012 133.079 50.4368 133.083 50.3727C133.087 50.3087 133.105 50.2461 133.133 50.1886C133.162 50.1311 133.201 50.0798 133.25 50.0377C133.299 49.9955 133.355 49.9634 133.416 49.9429C133.476 49.9225 133.541 49.9143 133.606 49.9189C133.669 49.9233 133.732 49.9404 133.789 49.9691C133.847 49.9977 133.898 50.0374 133.941 50.0858C133.982 50.1344 134.014 50.1907 134.035 50.2516C134.438 51.4555 135.583 53.2817 136.235 54.2619C136.284 54.3356 136.312 54.4212 136.316 54.5096C136.32 54.5979 136.3 54.6857 136.258 54.7637C136.217 54.8415 136.154 54.9066 136.078 54.9519C136.003 54.9973 135.915 55.0211 135.827 55.021H135.822ZM158.365 39.3866H158.313L149.037 38.4246C148.908 38.4112 148.789 38.3468 148.707 38.2456C148.624 38.1444 148.586 38.0147 148.6 37.885C148.613 37.7553 148.677 37.6362 148.778 37.5541C148.88 37.472 149.009 37.4333 149.139 37.4468L158.418 38.4063C158.548 38.4128 158.67 38.4705 158.757 38.5668C158.845 38.6631 158.89 38.79 158.883 38.9197C158.877 39.0493 158.819 39.1711 158.723 39.2582C158.626 39.3453 158.499 39.3906 158.369 39.3841L158.365 39.3866ZM143.644 38.4148H141.724C141.595 38.4148 141.47 38.3634 141.378 38.2716C141.287 38.1799 141.235 38.0556 141.235 37.9259C141.235 37.7962 141.287 37.6719 141.378 37.5803C141.47 37.4885 141.595 37.437 141.724 37.437H143.644C143.774 37.437 143.899 37.4885 143.99 37.5803C144.082 37.6719 144.133 37.7962 144.133 37.9259C144.133 38.0556 144.082 38.1799 143.99 38.2716C143.899 38.3634 143.774 38.4148 143.644 38.4148ZM130.825 66.3883C130.72 66.3883 130.616 66.354 130.532 66.2906C129.355 65.4068 128.576 63.9841 128.399 62.3902C128.222 60.7963 128.663 59.2367 129.614 58.1122C129.655 58.061 129.705 58.0184 129.763 57.9871C129.82 57.9558 129.884 57.9364 129.949 57.93C130.013 57.9237 130.079 57.9304 130.142 57.95C130.205 57.9694 130.263 58.0013 130.313 58.0436C130.363 58.086 130.403 58.138 130.433 58.1964C130.462 58.2548 130.48 58.3186 130.484 58.3839C130.489 58.4493 130.48 58.5148 130.458 58.5766C130.438 58.6385 130.403 58.6954 130.359 58.7441C129.582 59.662 129.221 60.9503 129.37 62.279C129.52 63.6076 130.156 64.7847 131.118 65.5071C131.2 65.5687 131.261 65.6545 131.292 65.7524C131.323 65.8504 131.321 65.9554 131.289 66.0528C131.256 66.1501 131.194 66.2348 131.111 66.2948C131.028 66.3549 130.928 66.3871 130.825 66.3871V66.3883ZM68.2719 89.7575C68.1673 89.7573 68.0654 89.7236 67.9815 89.6614C67.8974 89.5992 67.8355 89.5115 67.805 89.4115L56.9828 54.2949C56.665 53.2645 56.2237 52.1779 55.362 51.942C54.9525 51.8296 54.4844 51.92 53.96 52.041C52.1547 52.4578 50.3518 52.9639 48.5917 53.5481C48.6401 53.5898 48.6968 53.6211 48.7579 53.6398C48.8191 53.6591 48.876 53.6904 48.9251 53.7317C48.9743 53.7729 49.0148 53.8235 49.0444 53.8805C49.0741 53.9375 49.0922 53.9998 49.0977 54.0637C49.1033 54.1277 49.0962 54.1921 49.0769 54.2534C49.0576 54.3146 49.0263 54.3714 48.985 54.4206C48.9437 54.4698 48.8931 54.5103 48.8361 54.54C48.7792 54.5696 48.717 54.5877 48.6529 54.5933C48.589 54.5988 48.5246 54.5917 48.4633 54.5724C48.1895 54.4833 47.9467 54.3184 47.7627 54.0969C47.5789 53.8753 47.4615 53.6063 47.4244 53.3208C47.4111 53.2098 47.4361 53.0975 47.4955 53.0027C47.5549 52.908 47.645 52.8365 47.7507 52.8001C49.7163 52.1268 51.7154 51.5556 53.74 51.0888C54.3719 50.9422 54.9916 50.8261 55.6211 50.9984C56.9387 51.3651 57.5206 52.7231 57.9166 54.0077L68.74 89.1243C68.7626 89.1975 68.7676 89.275 68.7548 89.3505C68.742 89.4261 68.7115 89.4976 68.666 89.5592C68.6204 89.6208 68.561 89.6709 68.4925 89.7053C68.4241 89.7397 68.3485 89.7576 68.2719 89.7575ZM78.3643 59.3467C78.2529 59.3467 78.1449 59.3087 78.058 59.2389C77.9712 59.1691 77.9108 59.0717 77.8868 58.9629C77.8629 58.8541 77.8768 58.7404 77.9263 58.6406C77.9757 58.5408 78.0578 58.4609 78.1589 58.4141C79.6253 57.7372 81.1621 57.2247 82.7413 56.8862C82.8046 56.8713 82.8703 56.8691 82.9343 56.8799C82.9985 56.8906 83.0598 56.9141 83.1149 56.9489C83.1697 56.9836 83.2173 57.029 83.2544 57.0823C83.2916 57.1356 83.3179 57.1958 83.3316 57.2594C83.3451 57.3229 83.346 57.3886 83.334 57.4525C83.3219 57.5164 83.2973 57.5773 83.2614 57.6316C83.2256 57.6858 83.1794 57.7324 83.1252 57.7685C83.0712 57.8046 83.0105 57.8297 82.9467 57.842C81.438 58.1658 79.9696 58.6554 78.5684 59.3015C78.5045 59.331 78.4348 59.3466 78.3643 59.3467ZM80.09 61.5028C79.9897 61.5027 79.8918 61.4717 79.8096 61.414C79.7275 61.3564 79.665 61.2747 79.6308 61.1804C79.5967 61.086 79.5924 60.9833 79.6186 60.8864C79.6448 60.7895 79.7001 60.7031 79.7771 60.6387C80.6931 59.8758 81.7984 59.3749 82.9759 59.189C83.1041 59.169 83.235 59.2006 83.3399 59.277C83.4448 59.3534 83.515 59.4684 83.5351 59.5967C83.5552 59.7249 83.5236 59.8558 83.4471 59.9606C83.3707 60.0655 83.2557 60.1358 83.1274 60.1559C82.1245 60.3138 81.183 60.7405 80.4029 61.3904C80.3151 61.4632 80.2043 61.5031 80.09 61.5028Z" fill="black"/>
<path d="M175.484 65.8956C175.314 62.0245 174.752 58.1808 173.806 54.4231C173.691 53.9659 173.569 53.5104 173.439 53.0566C172.403 49.342 170.786 45.4918 167.769 43.2012L166.921 49.9397C167.333 51.7114 167.999 53.4142 168.898 54.9951C168.169 54.1851 167.394 53.417 166.576 52.6948L166.56 52.817L166.576 52.6948C163.161 49.6781 158.958 47.5024 154.475 47.7066C153.209 47.7628 151.62 48.3495 151.821 49.7527C151.862 50.0074 151.955 50.2513 152.093 50.4697C152.23 50.688 152.411 50.8765 152.622 51.0239C156.289 53.6579 160.779 55.4681 163.924 58.6241C163.992 58.6953 164.034 58.7889 164.037 58.8876C164.042 58.9863 164.012 59.0835 163.951 59.161C163.888 59.2384 163.801 59.291 163.704 59.309C163.607 59.3269 163.507 59.309 163.421 59.2585C158.976 56.5694 154.03 54.5038 148.933 55.0733C147.698 55.2115 146.144 55.9106 146.527 57.26C146.658 57.6887 146.948 58.0505 147.338 58.2696C152.181 61.0809 158.31 61.7728 162.73 65.0118C162.809 65.0703 162.864 65.1552 162.886 65.2512C162.907 65.3471 162.893 65.4475 162.847 65.534C162.8 65.6205 162.723 65.6873 162.632 65.722C162.54 65.7567 162.439 65.7572 162.346 65.7232C158.552 64.3573 154.616 63.4253 150.612 62.9449C148.925 62.7433 147.03 62.6785 145.792 63.9167C145.576 64.1262 145.424 64.3948 145.358 64.6892C145.163 65.6425 146.027 66.2366 146.808 66.6106C151.709 68.9586 157.631 69.0552 162.283 71.6697C162.368 71.7177 162.432 71.7942 162.467 71.8855C162.5 71.9769 162.5 72.077 162.465 72.1681C162.431 72.2592 162.366 72.3354 162.282 72.3829C162.197 72.4305 162.098 72.4462 162.002 72.4275C156.524 71.303 150.857 69.9683 145.54 71.2419C143.379 71.7589 143.665 73.5215 145.071 74.184C147.3 75.2339 149.941 75.6507 152.415 76.0516C156.194 76.6726 160.39 77.7775 162.304 81.0948C163.126 82.5188 163.437 84.241 164.627 85.4413C165.7 86.5292 167.272 87.0609 168.782 86.9729C170.868 86.8506 172.974 86.0354 173.811 83.9966C174.666 81.9187 174.581 79.457 174.873 77.2568C175.378 73.4787 175.654 69.7116 175.484 65.8956Z" fill="#FBD2B5"/>
<path d="M156.754 51.6314C156.657 51.6315 156.562 51.6027 156.481 51.5486C156.401 51.4946 156.338 51.4178 156.302 51.328C156.265 51.2382 156.255 51.1395 156.275 51.0444C156.294 50.9493 156.342 50.8622 156.411 50.7941C156.637 50.5717 156.64 50.2209 156.568 49.9678C156.496 49.7148 156.309 49.419 156.001 49.3481C155.939 49.3337 155.88 49.3072 155.827 49.27C155.775 49.2327 155.73 49.1856 155.697 49.1312C155.662 49.0768 155.639 49.0162 155.628 48.9528C155.617 48.8894 155.62 48.8246 155.634 48.762C155.648 48.6995 155.675 48.6403 155.713 48.588C155.749 48.5355 155.797 48.4911 155.851 48.457C155.906 48.4229 155.966 48.3999 156.029 48.3891C156.093 48.3785 156.157 48.3803 156.22 48.3947C156.831 48.5341 157.32 49.0352 157.509 49.7014C157.699 50.3675 157.54 51.0532 157.097 51.4896C157.006 51.5802 156.882 51.6311 156.754 51.6314ZM151.436 58.475C151.332 58.4748 151.23 58.4414 151.147 58.3798C151.063 58.3181 151.002 58.2314 150.97 58.1322C150.94 58.033 150.941 57.9266 150.975 57.8282C151.008 57.7298 151.071 57.6447 151.157 57.5852C151.217 57.5302 151.263 57.4633 151.295 57.389C151.327 57.3147 151.342 57.2345 151.34 57.1538C151.339 57.0731 151.321 56.9936 151.287 56.9205C151.252 56.8474 151.202 56.7824 151.141 56.7296C151.039 56.657 150.968 56.5476 150.943 56.424C150.92 56.3006 150.944 56.1725 151.012 56.0665C151.08 55.9605 151.185 55.8849 151.307 55.8552C151.43 55.8255 151.559 55.844 151.668 55.907C151.866 56.0466 152.027 56.2305 152.141 56.4443C152.255 56.658 152.316 56.8953 152.319 57.1371C152.324 57.3789 152.272 57.6183 152.167 57.8361C152.062 58.0539 151.906 58.2439 151.714 58.3907C151.633 58.4464 151.535 58.4759 151.436 58.475ZM150.825 66.607C150.734 66.607 150.645 66.5816 150.568 66.5336C150.491 66.4857 150.427 66.4173 150.387 66.3359C150.347 66.2545 150.33 66.1634 150.338 66.0729C150.347 65.9824 150.38 65.8961 150.435 65.8235C150.605 65.5916 150.705 65.3172 150.727 65.0311C150.749 64.7449 150.69 64.4585 150.557 64.2039C150.507 64.0917 150.501 63.9647 150.541 63.8482C150.58 63.7318 150.662 63.6345 150.77 63.5756C150.877 63.5166 151.003 63.5006 151.123 63.5306C151.241 63.5604 151.345 63.6342 151.413 63.737C151.636 64.1563 151.735 64.6301 151.7 65.1037C151.664 65.5772 151.496 66.031 151.213 66.4126C151.168 66.4728 151.109 66.5217 151.042 66.5554C150.975 66.5891 150.9 66.6067 150.825 66.607ZM148.027 73.8356C147.941 73.8355 147.857 73.8129 147.782 73.77C147.709 73.727 147.647 73.6653 147.604 73.5909C147.561 73.5166 147.539 73.4324 147.539 73.3466C147.539 73.2608 147.561 73.1766 147.604 73.1023C147.764 72.8198 147.814 72.4878 147.743 72.1709C147.715 72.0442 147.737 71.9115 147.807 71.8016C147.876 71.6919 147.986 71.6141 148.112 71.5854C148.239 71.5567 148.371 71.5795 148.481 71.6487C148.591 71.7179 148.67 71.8279 148.698 71.9545C148.821 72.5108 148.734 73.0928 148.453 73.5887C148.411 73.664 148.348 73.7265 148.274 73.7699C148.199 73.8133 148.114 73.836 148.027 73.8356ZM167.388 74.6497C167.302 74.6498 167.218 74.6273 167.143 74.5844C167.069 74.5416 167.008 74.4799 166.964 74.4056C166.921 74.3312 166.899 74.2468 166.899 74.1609C166.899 74.0751 166.921 73.9907 166.964 73.9163L167.2 73.5081C167.297 73.2962 167.365 73.0721 167.4 72.8419C167.409 72.7768 167.43 72.7138 167.461 72.6569C167.494 72.6 167.538 72.5503 167.591 72.5105C167.643 72.4709 167.703 72.4422 167.767 72.4262C167.83 72.4102 167.896 72.4071 167.961 72.4172C168.026 72.4273 168.088 72.4504 168.143 72.485C168.2 72.5196 168.247 72.5652 168.285 72.6188C168.323 72.6725 168.35 72.7331 168.363 72.7973C168.378 72.8615 168.378 72.9278 168.366 72.9923C168.356 73.0619 168.343 73.1304 168.328 73.2C168.347 73.2637 168.352 73.3306 168.345 73.3966C168.338 73.4626 168.316 73.5263 168.283 73.5838L168.066 73.9615C167.987 74.1274 167.895 74.2868 167.79 74.4382C167.746 74.5034 167.685 74.5567 167.615 74.5935C167.546 74.6304 167.467 74.6496 167.388 74.6497ZM168.717 68.4966C168.587 68.4966 168.462 68.4452 168.371 68.3534C168.279 68.2617 168.228 68.1374 168.228 68.0077V66.7292C168.228 66.5995 168.279 66.4752 168.371 66.3835C168.462 66.2917 168.587 66.2403 168.717 66.2403C168.846 66.2403 168.971 66.2917 169.063 66.3835C169.154 66.4752 169.206 66.5995 169.206 66.7292V68.009C169.206 68.1384 169.154 68.2625 169.063 68.3539C168.971 68.4453 168.846 68.4966 168.717 68.4966ZM169.572 63.3764C169.443 63.3764 169.318 63.325 169.226 63.2332C169.135 63.1415 169.083 63.0172 169.083 62.8875V61.6078C169.083 61.4781 169.135 61.3538 169.226 61.2621C169.318 61.1703 169.443 61.1189 169.572 61.1189C169.702 61.1189 169.826 61.1703 169.918 61.2621C170.01 61.3538 170.061 61.4781 170.061 61.6078V62.8875C170.061 63.0172 170.01 63.1415 169.918 63.2332C169.826 63.325 169.702 63.3764 169.572 63.3764Z" fill="black"/>
<path d="M69.2108 174.126H69.157C64.527 174.071 60.3712 173.356 55.262 171.733C54.3037 171.429 53.3209 171.053 52.3712 170.689C50.7651 170.078 49.1052 169.44 47.4918 169.12C46.8306 168.989 46.1326 168.875 45.4579 168.768C43.4423 168.444 41.3571 168.108 39.5689 167.196L27.9901 161.296C26.3815 160.476 24.3782 159.455 23.316 157.735C22.2807 156.057 22.2501 153.765 23.2365 151.605C24.1007 149.711 25.5357 148.144 26.923 146.628L34.1101 138.782C34.4035 138.462 34.687 138.131 34.9877 137.78C35.8238 136.802 36.6879 135.799 37.7574 135.038C38.7084 134.361 39.7131 134.168 40.9293 134.427C43.1588 134.909 45.4127 135.475 47.592 136.016C48.5882 136.261 49.6186 136.526 50.6307 136.772C54.2291 137.648 57.8667 138.578 61.4431 139.534C65.0196 140.49 68.6645 141.509 72.2287 142.549L73.5524 142.937C74.2308 143.137 75.0754 143.385 75.6511 143.998C76.2879 144.676 76.3979 145.567 76.4566 146.42C77.0162 154.598 76.1113 162.809 73.7847 170.668C73.4958 171.661 72.8948 172.532 72.0707 173.156C71.2468 173.778 70.2438 174.119 69.2108 174.126ZM39.9441 135.3C39.3597 135.299 38.7909 135.487 38.3234 135.838C37.3455 136.528 36.5278 137.489 35.7309 138.419C35.4375 138.76 35.1344 139.114 34.8313 139.445L27.6441 147.291C26.3082 148.757 24.9258 150.26 24.1252 152.014C23.2757 153.876 23.2842 155.824 24.1484 157.223C25.0663 158.711 26.934 159.668 28.435 160.428L40.0089 166.326C41.6602 167.167 43.6685 167.49 45.6095 167.802C46.294 167.912 47.0004 168.026 47.6788 168.16C49.3729 168.496 51.0731 169.147 52.7171 169.776C53.6534 170.134 54.6227 170.509 55.5541 170.802C60.5655 172.391 64.637 173.095 69.1644 173.148H69.2071C70.0278 173.142 70.8247 172.872 71.4795 172.377C72.1344 171.882 72.6122 171.19 72.8423 170.402C75.1365 162.654 76.029 154.559 75.4775 146.497C75.4299 145.791 75.3553 145.121 74.9348 144.677C74.54 144.258 73.8348 144.052 73.2725 143.884L71.9512 143.498C68.3931 142.46 64.7714 141.448 61.1864 140.489C57.6014 139.529 53.9859 138.606 50.396 137.731C49.3803 137.487 48.3486 137.225 47.35 136.975C45.178 136.429 42.9326 135.865 40.7191 135.386C40.4646 135.329 40.2047 135.301 39.9441 135.3Z" fill="#1B5EC9"/>
<path d="M70.0283 169.13H70.0148C68.9221 169.099 67.8892 168.763 66.8906 168.433L63.1675 167.211C62.9512 167.14 62.3767 166.952 62.2251 166.366C62.1721 166.109 62.1872 165.844 62.2691 165.595C63.5745 160.637 65.1232 155.528 67.591 151.739C67.7438 151.505 67.8966 151.257 68.0604 150.993C69.1507 149.233 70.505 147.04 72.4606 148.008C72.5182 148.036 72.5695 148.077 72.6117 148.124C72.654 148.173 72.6863 148.23 72.7068 148.291C72.7272 148.352 72.7355 148.415 72.7311 148.48C72.7267 148.544 72.7099 148.607 72.6813 148.665C72.6527 148.722 72.6131 148.774 72.5647 148.815C72.5163 148.858 72.4599 148.89 72.399 148.91C72.3382 148.931 72.2739 148.94 72.2097 148.935C72.1457 148.93 72.0831 148.913 72.0255 148.885C70.9536 148.353 70.0503 149.636 68.8915 151.509C68.7253 151.777 68.5688 152.03 68.4099 152.273C66.0179 155.946 64.4986 160.966 63.214 165.84C63.1847 165.93 63.1703 166.024 63.1712 166.118C63.1712 166.139 63.2164 166.195 63.4719 166.278L67.195 167.5C68.1276 167.806 69.092 168.121 70.0429 168.149C70.1726 168.152 70.2962 168.204 70.3865 168.297C70.4768 168.391 70.5265 168.516 70.5245 168.646C70.5226 168.775 70.4692 168.899 70.3761 168.989C70.283 169.08 70.158 169.13 70.0283 169.127V169.13ZM42.5828 163.671C41.919 163.675 41.2698 163.477 40.7212 163.102C38.339 161.487 39.6212 157.345 40.3961 154.872L40.4328 154.749C42.2831 148.826 45.4349 143.392 49.6575 138.845C49.7012 138.798 49.7539 138.76 49.8124 138.734C49.8709 138.707 49.9341 138.692 49.9982 138.69C50.0625 138.687 50.1266 138.698 50.1868 138.72C50.247 138.742 50.3022 138.776 50.3493 138.82C50.3963 138.864 50.4342 138.917 50.4609 138.976C50.4876 139.034 50.5024 139.097 50.5048 139.161C50.5071 139.226 50.4966 139.29 50.4742 139.35C50.4517 139.409 50.4175 139.466 50.3737 139.512C46.2493 143.954 43.1717 149.261 41.3666 155.048L41.33 155.17C40.6406 157.385 39.4879 161.092 41.2701 162.301C41.542 162.484 41.8492 162.609 42.1719 162.667C42.4946 162.726 42.8259 162.717 43.1451 162.642C44.3111 162.405 45.4503 161.488 45.9295 160.745C47.3217 158.589 48.4572 156.222 49.5536 153.921C50.1293 152.718 50.7245 151.476 51.3516 150.271C51.8234 149.365 52.239 148.415 52.6399 147.497C53.7778 144.898 54.9549 142.209 57.4777 140.501C57.5852 140.429 57.717 140.402 57.8444 140.426C57.9718 140.451 58.0841 140.525 58.1567 140.633C58.2293 140.741 58.2562 140.871 58.2316 141C58.2069 141.127 58.1327 141.239 58.0253 141.311C55.7372 142.86 54.6677 145.303 53.5358 147.89C53.1276 148.822 52.7059 149.787 52.2182 150.722C51.5985 151.912 51.0081 153.148 50.4361 154.344C49.325 156.666 48.1773 159.066 46.7508 161.275C46.1482 162.208 44.7842 163.307 43.3406 163.598C43.0912 163.648 42.8372 163.672 42.5828 163.671Z" fill="#1B5EC9"/>
<path d="M42.9031 157.117C41.9803 157.78 42.1062 159.453 43.1268 159.951C44.1474 160.45 45.5457 159.487 45.4308 158.352C45.3159 157.218 43.7196 156.568 42.864 157.315L42.9031 157.117Z" fill="black"/>
<path d="M43.7247 160.575C43.4437 160.576 43.1661 160.514 42.9131 160.391C42.2824 160.082 41.8668 159.432 41.7996 158.651C41.7323 157.87 42.044 157.13 42.6173 156.72C42.6764 156.677 42.7443 156.649 42.816 156.635C42.8876 156.623 42.9613 156.625 43.0316 156.645C43.5339 156.453 44.0909 156.46 44.5876 156.667C45.3344 156.962 45.8441 157.589 45.9175 158.304C45.9908 159.019 45.6327 159.714 44.9898 160.162C44.6199 160.424 44.1785 160.569 43.7247 160.575ZM42.9338 157.798C42.8032 158.032 42.7477 158.301 42.7749 158.568C42.8104 158.997 43.028 159.358 43.3421 159.512C43.7198 159.696 44.1525 159.554 44.4312 159.36C44.7098 159.165 44.9861 158.815 44.9445 158.403C44.903 157.991 44.5461 157.702 44.2283 157.576C43.9105 157.45 43.4851 157.42 43.1832 157.683C43.1127 157.744 43.0261 157.784 42.9338 157.798Z" fill="black"/>
<path d="M71.8104 159.03C71.7797 159.03 71.7489 159.027 71.7187 159.021C71.6555 159.009 71.5953 158.986 71.5415 158.95C71.4877 158.915 71.4414 158.87 71.4051 158.816C71.3689 158.763 71.3435 158.703 71.3304 158.64C71.3173 158.578 71.3168 158.513 71.3288 158.449C71.7641 156.154 71.8666 153.807 71.6332 151.482C71.6202 151.352 71.6593 151.223 71.7418 151.123C71.8243 151.021 71.9435 150.958 72.0732 150.944C72.2029 150.931 72.3324 150.97 72.4333 151.053C72.5341 151.135 72.598 151.255 72.611 151.384C72.8545 153.803 72.7478 156.243 72.2944 158.631C72.2733 158.744 72.2131 158.845 72.1248 158.919C72.0363 158.991 71.925 159.031 71.8104 159.03ZM70.8998 164.623C70.8657 164.623 70.8317 164.619 70.7983 164.612C70.7355 164.599 70.6759 164.573 70.6229 164.537C70.5699 164.501 70.5245 164.454 70.4895 164.401C70.4544 164.347 70.4303 164.287 70.4184 164.223C70.4067 164.161 70.4074 164.096 70.4206 164.033L71.0257 161.16C71.0524 161.033 71.1285 160.922 71.2371 160.851C71.3458 160.78 71.4782 160.756 71.605 160.783C71.732 160.809 71.8432 160.885 71.9139 160.994C71.9847 161.103 72.0095 161.235 71.9827 161.362L71.3777 164.234C71.3547 164.344 71.2947 164.443 71.2077 164.513C71.1207 164.584 71.012 164.623 70.8998 164.623Z" fill="#1B5EC9"/>
<path d="M36.8663 150.315C36.7954 151.554 37.1951 153.248 38.4345 153.202C39.3304 153.169 39.8377 152.184 40.131 151.337C41.3668 147.77 42.2517 143.936 44.2709 140.81C44.3289 140.72 44.4169 140.653 44.5195 140.621C44.6222 140.589 44.7328 140.595 44.8316 140.638C44.9304 140.679 45.0109 140.755 45.0588 140.852C45.1069 140.948 45.1192 141.058 45.0935 141.162L43.0364 149.768C42.5964 151.602 42.1943 153.694 43.3823 155.23C43.5121 155.402 43.6831 155.539 43.8798 155.628C44.6217 155.95 45.1791 155.356 45.5556 154.794C48.3265 150.667 48.2972 144.986 51.2441 141.083C51.2989 141.011 51.3739 140.957 51.4596 140.928C51.5454 140.898 51.638 140.895 51.7255 140.918C51.8129 140.942 51.8913 140.991 51.9506 141.06C52.0099 141.128 52.0474 141.212 52.0582 141.303C52.6021 145.962 50.0463 150.642 50.1367 155.414C50.1391 155.654 50.198 155.89 50.309 156.102C50.4198 156.315 50.5795 156.498 50.7748 156.637C51.8357 157.37 53.0067 156.049 53.4699 154.903C55.3095 150.355 55.6835 144.973 58.7576 141.262C58.816 141.19 58.895 141.138 58.9841 141.112C59.0731 141.086 59.1679 141.088 59.2559 141.117C59.3438 141.148 59.4206 141.203 59.4759 141.277C59.5313 141.352 59.5626 141.441 59.5655 141.534C59.81 145.934 57.4876 150.199 56.9608 154.634C56.8386 155.661 56.9608 156.973 58.1061 157.201C58.3751 157.251 58.6522 157.234 58.9133 157.152C59.1744 157.07 59.4118 156.927 59.6047 156.733C65.7883 150.65 64.1003 139.962 69.6996 133.509C70.8767 133.599 71.0857 135.241 70.8706 136.403C70.4981 138.41 69.9025 140.368 69.0946 142.242L73.886 143.559C76.4112 138.565 76.9759 132.226 74.9616 127.006C74.5252 125.876 73.9556 124.747 72.9986 124.005C72.0745 123.29 70.8938 123.015 69.7534 122.758L57.3654 119.975C55.5992 119.578 53.5677 118.816 51.7428 119.094C50.5975 119.268 50.0414 120.091 49.4425 120.992C48.5551 122.328 47.4477 123.488 46.4686 124.755C45.3893 126.155 44.3912 127.616 43.4789 129.13C41.6517 132.16 40.1731 135.388 39.0713 138.751C37.9691 142.097 37.2584 145.56 36.953 149.07C36.92 149.485 36.8895 149.9 36.8663 150.315Z" fill="#FBD2B5"/>
<path d="M46.8924 134.848C46.8693 134.85 46.846 134.85 46.8228 134.848L45.3291 134.634C45.2656 134.625 45.2044 134.603 45.1492 134.57C45.0939 134.539 45.0457 134.495 45.0072 134.443C44.9685 134.392 44.9405 134.333 44.9247 134.271C44.9086 134.21 44.9051 134.145 44.9141 134.081C44.9233 134.018 44.9447 133.957 44.9775 133.901C45.0102 133.846 45.0535 133.798 45.1048 133.759C45.1562 133.721 45.2146 133.693 45.2768 133.677C45.339 133.661 45.4037 133.657 45.4672 133.666L46.9609 133.88C47.0252 133.885 47.0879 133.902 47.1454 133.93C47.203 133.959 47.2544 133.998 47.2966 134.047C47.3388 134.096 47.3711 134.152 47.3915 134.213C47.4119 134.275 47.4201 134.339 47.4156 134.403C47.4112 134.468 47.3941 134.53 47.3653 134.587C47.3366 134.645 47.2968 134.696 47.2482 134.739C47.1996 134.781 47.1432 134.814 47.0821 134.833C47.0211 134.854 46.9567 134.862 46.8924 134.858V134.848ZM62.6797 137.407C62.6565 137.41 62.6332 137.41 62.6101 137.407L61.1164 137.195C60.988 137.176 60.8722 137.108 60.7944 137.004C60.7165 136.9 60.6831 136.77 60.7015 136.642C60.7197 136.514 60.7882 136.398 60.892 136.319C60.9958 136.241 61.1261 136.208 61.2545 136.227L62.7482 136.439C62.8778 136.449 62.9985 136.509 63.0838 136.607C63.1691 136.705 63.2119 136.833 63.2029 136.962C63.1937 137.092 63.1336 137.213 63.0354 137.299C62.9373 137.384 62.8093 137.427 62.6797 137.417V137.407ZM54.3631 136.007C54.3146 136.007 54.2664 136 54.2201 135.986C53.8493 135.872 53.4637 135.815 53.076 135.812C52.9463 135.812 52.8219 135.761 52.7302 135.669C52.6386 135.578 52.5871 135.453 52.5871 135.323C52.5871 135.194 52.6386 135.069 52.7302 134.977C52.8219 134.886 52.9463 134.834 53.076 134.834C53.5591 134.837 54.0392 134.91 54.5012 135.051C54.6127 135.085 54.7082 135.16 54.7703 135.257C54.8323 135.356 54.857 135.475 54.8397 135.59C54.8224 135.706 54.7644 135.811 54.676 135.888C54.5878 135.964 54.475 136.007 54.3582 136.007H54.3631ZM39.6088 149.26C39.5117 149.26 39.4169 149.231 39.3363 149.177C39.2558 149.123 39.1932 149.046 39.1565 148.956C39.1234 148.905 39.08 148.863 39.0291 148.83C38.9783 148.797 38.9212 148.775 38.8614 148.766C38.8017 148.758 38.7408 148.76 38.6825 148.777C38.6242 148.793 38.57 148.821 38.5234 148.859C38.4836 148.912 38.4336 148.957 38.3763 148.99C38.319 149.023 38.2556 149.044 38.1899 149.052C38.1242 149.059 38.0575 149.053 37.9941 149.035C37.9305 149.017 37.8715 148.985 37.8205 148.943C37.7696 148.901 37.7276 148.849 37.6973 148.789C37.667 148.731 37.6489 148.667 37.6443 148.601C37.6396 148.535 37.6483 148.468 37.6701 148.406C37.6917 148.343 37.7258 148.286 37.7704 148.237C37.925 148.068 38.1189 147.94 38.335 147.863C38.5511 147.787 38.7826 147.765 39.0091 147.799C39.2356 147.835 39.4501 147.924 39.6336 148.061C39.817 148.199 39.9638 148.379 40.061 148.586C40.0912 148.661 40.1028 148.742 40.0946 148.821C40.0864 148.901 40.0588 148.978 40.0142 149.044C39.9695 149.111 39.9091 149.165 39.8384 149.202C39.7678 149.24 39.6888 149.26 39.6088 149.26ZM45.6091 151.384C45.543 151.384 45.4776 151.371 45.417 151.345C45.3562 151.318 45.3014 151.28 45.2559 151.233C45.1283 151.103 44.9739 151.003 44.8034 150.939C44.633 150.876 44.4506 150.851 44.2695 150.866C44.2052 150.872 44.1406 150.865 44.0791 150.845C44.0176 150.826 43.9605 150.795 43.911 150.754C43.8616 150.712 43.8208 150.662 43.791 150.604C43.7611 150.547 43.7428 150.485 43.7372 150.421C43.7314 150.356 43.7384 150.292 43.7577 150.23C43.777 150.169 43.8083 150.112 43.8496 150.062C43.8911 150.013 43.9417 149.973 43.9989 149.942C44.056 149.913 44.1184 149.894 44.1827 149.888C44.5107 149.861 44.8406 149.907 45.1487 150.023C45.4567 150.139 45.735 150.321 45.9636 150.558C46.03 150.628 46.0746 150.714 46.0918 150.809C46.1091 150.904 46.0981 151 46.0603 151.09C46.0224 151.178 45.9596 151.252 45.8793 151.305C45.7991 151.359 45.7051 151.386 45.6091 151.386V151.384ZM52.553 153.077C52.4528 153.077 52.3551 153.047 52.2731 152.989C52.0745 152.851 51.8387 152.778 51.5972 152.776H51.5848C51.4553 152.776 51.3308 152.725 51.2392 152.633C51.1475 152.542 51.0959 152.417 51.0959 152.288C51.0959 152.158 51.1475 152.033 51.2392 151.942C51.3308 151.85 51.4553 151.799 51.5848 151.799C52.0321 151.797 52.469 151.933 52.8366 152.187C52.9219 152.247 52.9859 152.333 53.0194 152.431C53.0531 152.53 53.0543 152.636 53.0231 152.735C52.9918 152.834 52.9297 152.921 52.8459 152.983C52.762 153.044 52.6607 153.077 52.5567 153.077H52.553ZM59.9208 153.922C59.815 153.922 59.7121 153.888 59.6274 153.824C59.4095 153.66 59.1524 153.555 58.8818 153.521C58.7531 153.505 58.6361 153.438 58.5566 153.335C58.4771 153.234 58.4416 153.103 58.4577 152.975C58.4739 152.846 58.5406 152.729 58.643 152.649C58.7455 152.57 58.8753 152.534 59.004 152.55C59.442 152.607 59.8579 152.775 60.2117 153.039C60.2938 153.1 60.3544 153.187 60.385 153.285C60.4157 153.383 60.4146 153.488 60.3822 153.586C60.3497 153.682 60.2875 153.768 60.2042 153.828C60.121 153.888 60.021 153.919 59.9183 153.919L59.9208 153.922Z" fill="black"/>
<path d="M79.9642 137.035C80.1121 137.481 80.2833 137.955 80.7233 138.257C81.1914 138.575 81.8527 138.616 82.4651 138.641C90.8842 138.983 102.984 138.115 111.411 137.974L160.046 137.16C161.193 137.142 166.735 136.865 167.688 136.355C168.93 135.692 169.38 134.426 169.736 133.267C174.576 117.524 175.224 101.876 178.352 85.9756C178.457 85.4498 178.444 84.9072 178.315 84.3868C178.187 83.8662 177.946 83.3803 177.607 82.9638C177.27 82.5471 176.844 82.2099 176.363 81.976C175.88 81.7422 175.352 81.6175 174.815 81.6108C145.534 81.2881 116.232 82.2305 87.0792 84.4331C84.2447 84.647 81.4126 84.8731 78.5855 85.1396C75.8573 85.3963 72.9495 85.5319 70.2885 86.093C69.4855 86.2629 68.4624 86.6283 68.2106 87.3324C68.0163 87.8849 68.3463 88.4887 68.5859 88.9972C69.4757 90.8832 69.9438 92.8743 70.5293 94.8336C71.858 99.2828 77.9768 131.06 79.4411 135.482L79.9642 137.035Z" fill="#3982F0"/>
<path d="M90.5535 133.052C90.4386 133.052 90.3275 133.012 90.2398 132.937C90.1519 132.864 90.093 132.761 90.0732 132.648C88.428 123.269 86.8695 116.451 85.3624 109.858C83.4899 101.669 81.7224 93.9401 79.9672 82.151C79.9556 82.0866 79.9571 82.0205 79.9715 81.9565C79.9859 81.8926 80.0131 81.8324 80.0512 81.7791C80.0894 81.7259 80.138 81.6809 80.1938 81.6468C80.2498 81.6127 80.312 81.5902 80.3768 81.5807C80.4416 81.5712 80.5076 81.5746 80.571 81.5911C80.6345 81.6075 80.6939 81.6366 80.7458 81.6764C80.7979 81.7162 80.8413 81.7661 80.8735 81.8231C80.9059 81.88 80.9265 81.943 80.9341 82.008C82.6844 93.758 84.4482 101.473 86.3122 109.64C87.8254 116.244 89.3899 123.077 91.0363 132.479C91.0587 132.607 91.0294 132.738 90.9548 132.844C90.8804 132.951 90.7668 133.023 90.6391 133.045C90.6107 133.05 90.5821 133.052 90.5535 133.052ZM163.169 110.1C163.144 110.101 163.121 110.101 163.097 110.1C163.033 110.09 162.972 110.069 162.917 110.035C162.862 110.002 162.814 109.959 162.775 109.907C162.737 109.855 162.709 109.797 162.694 109.734C162.678 109.672 162.675 109.607 162.685 109.544L166.525 83.7535C166.532 83.6884 166.553 83.6255 166.586 83.5685C166.618 83.5116 166.662 83.4617 166.713 83.4218C166.766 83.382 166.825 83.3529 166.888 83.3365C166.952 83.32 167.018 83.3165 167.082 83.3261C167.147 83.3357 167.21 83.3582 167.266 83.3923C167.321 83.4264 167.37 83.4713 167.408 83.5245C167.447 83.5778 167.474 83.6381 167.488 83.702C167.502 83.7659 167.504 83.832 167.492 83.8965L163.651 109.687C163.633 109.802 163.574 109.907 163.486 109.983C163.398 110.058 163.285 110.1 163.169 110.1ZM160.609 125.298C160.579 125.298 160.548 125.294 160.517 125.289C160.455 125.277 160.394 125.254 160.34 125.219C160.286 125.183 160.24 125.138 160.205 125.084C160.168 125.032 160.142 124.972 160.13 124.908C160.117 124.846 160.115 124.781 160.128 124.717C160.139 124.661 161.201 119.03 161.435 115.982C161.44 115.918 161.459 115.855 161.488 115.797C161.516 115.74 161.556 115.69 161.605 115.647C161.654 115.605 161.712 115.573 161.773 115.554C161.834 115.533 161.899 115.526 161.962 115.531C162.027 115.535 162.089 115.554 162.147 115.582C162.204 115.611 162.256 115.652 162.297 115.701C162.339 115.749 162.37 115.807 162.391 115.868C162.411 115.929 162.418 115.994 162.413 116.057C162.169 119.16 161.135 124.666 161.091 124.9C161.07 125.012 161.01 125.113 160.922 125.186C160.834 125.259 160.724 125.298 160.609 125.298ZM148.249 98.1533C148.233 98.1546 148.217 98.1546 148.2 98.1533C148.072 98.1406 147.953 98.0774 147.872 97.9776C147.788 97.8777 147.749 97.7492 147.762 97.6204L148.821 86.742C148.827 86.6778 148.847 86.6155 148.878 86.5585C148.907 86.5015 148.948 86.4512 148.999 86.4102C149.049 86.3693 149.106 86.3385 149.167 86.3197C149.23 86.3008 149.294 86.2945 149.358 86.3007C149.423 86.3069 149.485 86.3258 149.541 86.3562C149.599 86.3865 149.649 86.4278 149.69 86.4776C149.731 86.5275 149.761 86.5849 149.781 86.6466C149.799 86.7082 149.805 86.7731 149.799 86.8373L148.739 97.7158C148.727 97.8365 148.67 97.9482 148.579 98.0291C148.489 98.1101 148.372 98.1543 148.249 98.1533ZM146.45 122.967H146.41C146.281 122.956 146.162 122.895 146.077 122.796C145.993 122.698 145.953 122.57 145.962 122.44C145.975 122.289 147.199 107.256 147.363 104.465C147.367 104.402 147.384 104.338 147.412 104.281C147.44 104.222 147.479 104.171 147.527 104.128C147.575 104.085 147.631 104.052 147.692 104.031C147.753 104.01 147.817 104.002 147.881 104.006C147.945 104.009 148.008 104.025 148.066 104.053C148.123 104.081 148.176 104.12 148.219 104.168C148.262 104.217 148.294 104.273 148.315 104.333C148.336 104.394 148.345 104.459 148.341 104.523C148.176 107.324 146.95 122.368 146.938 122.52C146.928 122.642 146.872 122.756 146.781 122.839C146.691 122.922 146.574 122.967 146.45 122.967ZM104.913 103.7C104.788 103.7 104.668 103.652 104.577 103.568C104.486 103.482 104.431 103.365 104.424 103.24L103.645 90.2218C103.642 90.1577 103.65 90.0933 103.671 90.0325C103.693 89.9718 103.725 89.9157 103.767 89.8675C103.81 89.8195 103.863 89.7801 103.92 89.752C103.978 89.7239 104.041 89.7075 104.105 89.7036C104.17 89.6997 104.233 89.7086 104.294 89.7296C104.355 89.7506 104.412 89.7834 104.459 89.8261C104.507 89.8687 104.547 89.9204 104.575 89.9784C104.603 90.0362 104.619 90.099 104.623 90.1632L105.402 103.182C105.405 103.247 105.397 103.31 105.376 103.371C105.355 103.431 105.322 103.487 105.279 103.536C105.237 103.584 105.185 103.623 105.127 103.651C105.069 103.679 105.007 103.695 104.942 103.699L104.913 103.7ZM105.333 113.94C105.209 113.94 105.089 113.893 104.997 113.807C104.907 113.722 104.852 113.604 104.844 113.48L104.558 108.577C104.555 108.513 104.564 108.449 104.585 108.388C104.606 108.328 104.639 108.271 104.682 108.224C104.724 108.175 104.776 108.136 104.834 108.108C104.892 108.079 104.955 108.064 105.019 108.06C105.084 108.056 105.147 108.065 105.209 108.087C105.27 108.108 105.325 108.141 105.374 108.183C105.421 108.226 105.46 108.277 105.488 108.336C105.517 108.394 105.532 108.457 105.536 108.521L105.822 113.421C105.829 113.55 105.785 113.678 105.699 113.774C105.613 113.871 105.492 113.929 105.363 113.937L105.333 113.94ZM106.454 127.854C106.332 127.854 106.213 127.809 106.123 127.725C106.032 127.642 105.976 127.529 105.965 127.406L105.279 119.254C105.275 119.19 105.282 119.125 105.301 119.063C105.321 119.002 105.352 118.946 105.393 118.896C105.435 118.847 105.486 118.806 105.543 118.777C105.601 118.746 105.663 118.729 105.727 118.723C105.792 118.718 105.856 118.726 105.917 118.745C105.979 118.765 106.036 118.795 106.085 118.837C106.134 118.878 106.175 118.93 106.205 118.987C106.234 119.043 106.252 119.107 106.257 119.171L106.952 127.323C106.963 127.453 106.922 127.581 106.839 127.68C106.756 127.779 106.636 127.842 106.507 127.853L106.454 127.854ZM128.206 115.223C128.076 115.223 127.952 115.171 127.86 115.08C127.768 114.988 127.717 114.863 127.717 114.734L127.902 92.543C127.902 92.4133 127.953 92.289 128.045 92.1973C128.136 92.1055 128.261 92.0541 128.391 92.0541C128.52 92.0541 128.645 92.1055 128.737 92.1973C128.828 92.289 128.88 92.4133 128.88 92.543L128.695 114.735C128.695 114.864 128.644 114.988 128.552 115.08C128.46 115.171 128.336 115.223 128.206 115.223ZM128.603 123.879C128.474 123.879 128.349 123.828 128.257 123.736C128.166 123.644 128.114 123.52 128.114 123.39V121.572C128.114 121.443 128.166 121.318 128.257 121.227C128.349 121.135 128.474 121.084 128.603 121.084C128.733 121.084 128.858 121.135 128.949 121.227C129.041 121.318 129.092 121.443 129.092 121.572V123.39C129.092 123.52 129.041 123.644 128.949 123.736C128.858 123.828 128.733 123.879 128.603 123.879ZM126 135.266C125.87 135.267 125.746 135.217 125.653 135.125C125.561 135.035 125.508 134.91 125.507 134.781C125.506 134.651 125.557 134.526 125.648 134.433C125.739 134.342 125.863 134.289 125.992 134.288C128.899 134.246 130.148 134.183 131.353 134.122C132.559 134.061 133.825 134 136.75 133.954H136.757C136.822 133.954 136.886 133.967 136.944 133.991C137.004 134.014 137.058 134.051 137.104 134.095C137.15 134.14 137.186 134.194 137.211 134.254C137.236 134.312 137.249 134.376 137.25 134.441C137.25 134.504 137.238 134.568 137.213 134.628C137.189 134.688 137.153 134.741 137.108 134.787C137.063 134.833 137.009 134.869 136.95 134.894C136.892 134.919 136.828 134.932 136.763 134.932C133.857 134.974 132.608 135.037 131.404 135.098C130.2 135.159 128.931 135.221 126.007 135.265L126 135.266ZM141.215 134.933C141.085 134.933 140.961 134.882 140.869 134.79C140.777 134.699 140.726 134.574 140.726 134.444C140.726 134.315 140.777 134.19 140.869 134.099C140.961 134.007 141.085 133.956 141.215 133.956C141.858 133.956 142.484 133.904 143.088 133.853C143.894 133.786 144.656 133.722 145.385 133.787C145.45 133.793 145.513 133.811 145.57 133.841C145.626 133.871 145.678 133.912 145.719 133.96C145.759 134.011 145.791 134.068 145.811 134.129C145.83 134.19 145.836 134.255 145.832 134.32C145.825 134.383 145.807 134.446 145.778 134.503C145.747 134.561 145.707 134.611 145.657 134.652C145.608 134.694 145.55 134.724 145.489 134.744C145.428 134.763 145.363 134.771 145.299 134.765C144.653 134.707 143.933 134.765 143.169 134.832C142.542 134.88 141.897 134.933 141.215 134.933ZM156.566 134.738C156.436 134.738 156.312 134.686 156.22 134.595C156.128 134.503 156.077 134.378 156.077 134.249C156.077 134.119 156.128 133.995 156.22 133.903C156.312 133.811 156.436 133.76 156.566 133.76L157.616 133.749H157.86L158.952 133.739C161.263 133.716 163.638 133.566 165.034 132.028C165.077 131.979 165.129 131.94 165.188 131.912C165.245 131.884 165.309 131.868 165.374 131.864C165.438 131.861 165.503 131.87 165.564 131.892C165.624 131.913 165.68 131.947 165.728 131.991C165.777 132.034 165.815 132.087 165.843 132.145C165.87 132.204 165.886 132.268 165.888 132.332C165.891 132.397 165.881 132.462 165.859 132.522C165.836 132.583 165.801 132.638 165.757 132.686C164.096 134.519 161.378 134.693 158.961 134.716L157.912 134.726C157.865 134.726 157.814 134.726 157.761 134.726H157.668L156.576 134.737L156.566 134.738ZM89.7284 176.549C89.6185 176.549 89.5118 176.512 89.4255 176.444C89.3392 176.375 89.2784 176.281 89.2529 176.174C88.2751 172.084 86.7081 164.991 85.1863 158.133C83.6645 151.274 82.0939 144.189 81.1234 140.106C81.1065 140.043 81.1024 139.978 81.1114 139.913C81.1205 139.848 81.1423 139.786 81.1758 139.73C81.2093 139.673 81.2537 139.625 81.3064 139.585C81.359 139.548 81.4189 139.519 81.4826 139.505C81.5462 139.489 81.6121 139.486 81.6766 139.497C81.741 139.508 81.8026 139.532 81.8577 139.567C81.913 139.603 81.9605 139.648 81.9977 139.702C82.0349 139.755 82.0609 139.816 82.0743 139.88C83.0522 143.97 84.6204 151.062 86.1409 157.92C87.6615 164.778 89.2333 171.864 90.2038 175.946C90.2186 176.009 90.2209 176.075 90.2104 176.138C90.2 176.202 90.1772 176.263 90.1431 176.318C90.109 176.372 90.0644 176.419 90.0119 176.457C89.9594 176.494 89.9 176.521 89.8372 176.535C89.8015 176.544 89.765 176.549 89.7284 176.549Z" fill="black"/>
<path d="M89.1452 174.934C87.3227 175.423 86.2056 177.616 86.7764 179.415C87.3472 181.215 89.419 182.349 91.2695 181.982C93.1201 181.615 94.5587 179.848 94.6724 177.963C94.7178 177.421 94.6278 176.874 94.4108 176.374C93.6665 174.769 91.4773 174.381 89.7796 174.907L89.1452 174.934ZM158.674 176.549C158.629 176.549 158.585 176.543 158.541 176.531C158.48 176.514 158.421 176.484 158.371 176.444C158.321 176.405 158.279 176.355 158.247 176.298C158.216 176.242 158.196 176.181 158.189 176.118C158.181 176.054 158.186 175.989 158.203 175.927C158.326 175.501 158.426 175.041 158.532 174.552C158.639 174.063 158.753 173.549 158.899 173.031C159.459 170.981 159.427 169.537 158.804 168.739C158.03 167.748 156.377 167.703 154.458 167.745C132.643 168.226 110.53 168.994 88.7357 170.026C88.6715 170.029 88.6074 170.019 88.5469 169.997C88.4864 169.975 88.4308 169.942 88.3832 169.898C88.3357 169.856 88.297 169.803 88.2697 169.746C88.2423 169.687 88.2266 169.625 88.2236 169.56C88.2205 169.496 88.2302 169.432 88.2519 169.372C88.2737 169.311 88.3071 169.256 88.3503 169.208C88.3936 169.16 88.4458 169.121 88.504 169.094C88.5621 169.066 88.6251 169.051 88.6893 169.048C110.492 168.015 132.612 167.247 154.436 166.767C156.217 166.727 158.436 166.679 159.57 168.136C160.406 169.205 160.494 170.891 159.839 173.288C159.704 173.777 159.594 174.279 159.489 174.755C159.378 175.258 159.274 175.733 159.146 176.186C159.119 176.29 159.058 176.382 158.972 176.448C158.887 176.514 158.782 176.549 158.674 176.549Z" fill="black"/>
<path d="M157.821 173.901C157.21 173.92 156.586 174.399 156.11 174.773C155.145 175.529 154.478 176.689 154.422 177.914C154.365 179.139 154.968 180.4 156.011 181.037C157.376 181.866 159.162 181.536 160.595 180.833C161.287 180.493 161.958 180.057 162.399 179.425C163.269 178.181 163.011 176.35 161.984 175.23C160.957 174.11 159.322 173.68 157.821 173.901ZM33.2628 61.653C32.3314 61.653 31.4489 61.4672 30.724 60.8867C29.602 59.9883 29.2744 58.4115 29.8501 56.671C30.2168 55.5587 30.8279 55.082 31.6836 54.6872C33.0394 54.0633 34.4265 53.5096 35.8394 53.0285C38.7594 52.0225 41.7968 51.2647 44.6399 50.5974C45.6177 50.3676 46.84 50.0803 48.0244 50.3529C48.7484 50.517 49.4136 50.8762 49.9481 51.3912C50.4826 51.9064 50.8659 52.558 51.0565 53.2754C51.2472 53.9929 51.2377 54.7488 51.0296 55.4612C50.8213 56.1738 50.422 56.8157 49.875 57.3175C49.0683 58.0509 48.0416 58.4066 46.9794 58.733C43.0596 59.9333 39.0596 60.8535 35.0094 61.4868C34.4324 61.587 33.8484 61.6426 33.2628 61.653ZM31.3303 60.1288C32.2043 60.8292 33.5402 60.74 34.853 60.531C38.8594 59.9047 42.8161 58.9942 46.6934 57.8065C47.648 57.5143 48.5586 57.2026 49.2162 56.6037C49.6336 56.2231 49.9388 55.7354 50.0984 55.1936C50.2581 54.6517 50.2661 54.0765 50.1217 53.5304C49.9773 52.9843 49.6859 52.4881 49.2794 52.096C48.8727 51.7039 48.3664 51.4308 47.8154 51.3063C46.851 51.0875 45.7999 51.3344 44.8709 51.5507C42.0486 52.2132 39.0406 52.9637 36.162 53.955C34.7809 54.4251 33.4247 54.9661 32.0991 55.5758C31.323 55.9363 31.015 56.2639 30.7778 56.9802C30.6128 57.4789 30.1642 59.1852 31.3303 60.1288Z" fill="black"/>
<path d="M92.5875 71.7895C85.0092 70.1822 76.6597 71.3617 70.4248 75.9575C66.4388 78.8911 63.5176 83.0126 60.3909 86.8531C57.6669 90.1993 54.7435 93.3781 51.6368 96.3724C48.5359 99.3596 45.0364 102.577 44.6001 106.86C44.2823 109.979 45.8615 113.215 48.5114 114.885C47.2194 115.863 45.6195 116.352 44.2969 117.28C42.9744 118.207 41.9196 119.899 42.5002 121.405C42.9414 122.554 44.2114 123.204 45.4337 123.318C46.656 123.431 47.8783 123.116 49.0871 122.88C56.6397 121.413 64.7619 123.125 71.0701 127.532C72.0993 128.251 73.1603 129.067 74.4119 129.153C76.0094 129.264 77.5031 128.06 78.0714 126.563C78.6398 125.066 78.4161 123.364 77.827 121.874C81.0856 120.81 83.3053 117.869 85.3099 115.089C90.8836 107.363 96.5428 99.4684 99.436 90.3917C100.078 88.3773 100.68 86.1625 102.369 84.8913C104.099 83.5957 106.383 83.702 108.433 83.6519C109.235 83.6323 110.054 83.6421 110.542 82.8965C110.72 82.6111 110.815 82.282 110.818 81.9457C110.82 81.6093 110.73 81.2788 110.555 80.991C110.066 80.1842 108.979 79.6012 108.233 79.0573C107.326 78.3988 106.399 77.7698 105.451 77.1701C103.589 75.9905 101.641 74.9532 99.623 74.0667C97.3608 73.0718 95.0036 72.3089 92.5875 71.7895Z" fill="#292A2E"/>
<path d="M47.0663 115.988C46.9559 115.988 46.8485 115.951 46.762 115.883C46.6753 115.813 46.6146 115.718 46.5894 115.61C46.5644 115.502 46.5765 115.39 46.6238 115.29C46.6711 115.19 46.7509 115.109 46.85 115.06C49.3906 113.813 52.224 113.285 55.0431 113.535C55.1727 113.546 55.2925 113.608 55.3763 113.708C55.4599 113.808 55.5006 113.937 55.4892 114.066C55.4778 114.196 55.4155 114.316 55.3158 114.4C55.216 114.483 55.0872 114.523 54.9575 114.512C52.3143 114.279 49.6576 114.775 47.2766 115.946C47.2103 115.976 47.1386 115.989 47.0663 115.988ZM61.1949 116.043C61.1499 116.043 61.105 116.037 61.0617 116.024L58.0719 115.18C58.0101 115.163 57.9524 115.133 57.902 115.093C57.8515 115.054 57.8095 115.004 57.7782 114.948C57.7469 114.891 57.7269 114.83 57.7194 114.767C57.7119 114.703 57.7171 114.638 57.7346 114.576C57.752 114.515 57.7816 114.456 57.8213 114.406C57.8612 114.356 57.9106 114.313 57.9666 114.283C58.0227 114.251 58.0844 114.231 58.1482 114.224C58.212 114.217 58.2765 114.222 58.3384 114.239L61.3281 115.083C61.4418 115.115 61.5401 115.187 61.6047 115.286C61.6694 115.385 61.696 115.504 61.6798 115.621C61.6635 115.738 61.6055 115.846 61.5164 115.923C61.4272 116 61.313 116.043 61.1949 116.043ZM66.0926 117.78C66.0403 117.78 65.9884 117.771 65.9386 117.755L64.0184 117.115C63.9575 117.094 63.9012 117.062 63.8527 117.021C63.8041 116.978 63.7644 116.926 63.7357 116.869C63.7069 116.813 63.6898 116.749 63.6853 116.686C63.6808 116.622 63.6889 116.557 63.7092 116.496C63.7294 116.435 63.7616 116.379 63.8036 116.331C63.8457 116.282 63.8969 116.242 63.9543 116.214C64.0118 116.185 64.0744 116.167 64.1384 116.164C64.2025 116.159 64.2668 116.166 64.3276 116.187L66.2479 116.827C66.3576 116.864 66.4506 116.94 66.5104 117.039C66.5702 117.138 66.5928 117.255 66.5741 117.369C66.5555 117.484 66.4968 117.588 66.4086 117.664C66.3205 117.738 66.2085 117.78 66.0926 117.78ZM73.7735 120.767C73.7129 120.767 73.6529 120.756 73.5963 120.734L69.7559 119.24C69.635 119.194 69.5377 119.1 69.4854 118.981C69.433 118.863 69.4301 118.728 69.4772 118.607C69.5241 118.486 69.6172 118.39 69.7361 118.337C69.8547 118.284 69.9894 118.282 70.1103 118.328L73.9508 119.822C74.0572 119.864 74.1459 119.941 74.2013 120.041C74.2568 120.14 74.2758 120.256 74.2548 120.368C74.2336 120.481 74.1741 120.581 74.0862 120.654C73.9983 120.728 73.8877 120.767 73.7735 120.767Z" fill="white"/>
</g>
<defs>
<clipPath id="clip0_6_6943">
<rect width="201" height="201" fill="white"/>
</clipPath>
</defs>
</svg>
