<svg width="72" height="45" viewBox="0 0 72 45" fill="none" xmlns="http://www.w3.org/2000/svg">
<path d="M57.9057 5.1533C62.0573 5.15388 64.1331 5.15417 65.4229 6.43646C66.7126 7.71874 66.7126 9.78227 66.7126 13.9093V36.234C66.7126 40.361 66.7126 42.4245 65.4229 43.7065C64.1331 44.9884 62.0573 44.9881 57.9057 44.9875L14.091 44.9814C9.93937 44.9808 7.86354 44.9805 6.57379 43.6982C5.28404 42.4159 5.28404 40.3524 5.28404 36.2254V13.9007C5.28404 9.77367 5.28404 7.71015 6.57379 6.42822C7.86354 5.1463 9.93937 5.14659 14.091 5.14717L57.9057 5.1533Z" fill="url(#paint0_linear_2004_2650)" fill-opacity="0.16"/>
<path d="M60.548 3.83994C64.6997 3.84052 66.7755 3.84081 68.0652 5.1231C69.355 6.40538 69.355 8.4689 69.355 12.5959V34.9206C69.355 39.0477 69.355 41.1112 68.0652 42.3931C66.7755 43.675 64.6997 43.6747 60.548 43.6742L11.4492 43.6673C7.29752 43.6667 5.22169 43.6664 3.93194 42.3841C2.64219 41.1018 2.64219 39.0383 2.64219 34.9113V12.5866C2.64219 8.45957 2.64219 6.39605 3.93194 5.11412C5.22169 3.8322 7.29752 3.83249 11.4492 3.83307L60.548 3.83994Z" fill="url(#paint1_linear_2004_2650)" fill-opacity="0.16"/>
<path d="M62.6279 1.00639C67.0446 1.00701 69.2529 1.00732 70.625 2.37147C71.9971 3.73561 71.9971 5.93086 71.9971 10.3214V32.523C71.9971 36.9135 71.9971 39.1087 70.625 40.4725C69.2529 41.8363 67.0446 41.836 62.6279 41.8353L9.36928 41.8279C4.95261 41.8273 2.74427 41.827 1.37218 40.4628C9.91821e-05 39.0987 9.91821e-05 36.9034 9.91821e-05 32.5129V10.3113C9.91821e-05 5.92079 9.91821e-05 3.72555 1.37218 2.36179C2.74427 0.998024 4.95261 0.998332 9.36928 0.99895L62.6279 1.00639Z" fill="url(#paint2_linear_2004_2650)"/>
<path d="M54.1181 8.99896L54.5565 5.85788H55.2101L54.8517 8.42977H56.1798L56.0997 8.99896H54.1181ZM57.9689 9.04955C57.7412 9.04955 57.5304 9.0116 57.3365 8.93571C57.1453 8.85982 56.9781 8.75301 56.8347 8.61528C56.6942 8.47755 56.5846 8.31733 56.5059 8.13463C56.4272 7.94912 56.3878 7.74674 56.3878 7.5275C56.3878 7.28296 56.4328 7.05669 56.5227 6.84869C56.6127 6.64069 56.7378 6.45939 56.898 6.30479C57.0582 6.14739 57.2437 6.02512 57.4545 5.93798C57.6682 5.85085 57.8986 5.80728 58.146 5.80728C58.3765 5.80728 58.5873 5.84523 58.7784 5.92112C58.9724 5.99701 59.1396 6.10382 59.2802 6.24155C59.4235 6.37647 59.5331 6.53669 59.609 6.7222C59.6877 6.9049 59.7271 7.10447 59.7271 7.3209C59.7271 7.56544 59.6821 7.79312 59.5922 8.00393C59.5022 8.21193 59.3757 8.39463 59.2127 8.55204C59.0525 8.70944 58.8656 8.83171 58.6519 8.91885C58.4411 9.00598 58.2134 9.04955 57.9689 9.04955ZM57.9689 8.45928C58.1207 8.45928 58.2626 8.43117 58.3947 8.37496C58.5297 8.31874 58.6477 8.24004 58.7489 8.13885C58.8501 8.03766 58.9288 7.9182 58.985 7.78047C59.044 7.63993 59.0736 7.48815 59.0736 7.32512C59.0736 7.13961 59.0328 6.97798 58.9513 6.84025C58.8726 6.69971 58.763 6.5915 58.6224 6.51561C58.4847 6.4369 58.3259 6.39755 58.146 6.39755C57.9942 6.39755 57.8509 6.42566 57.7159 6.48188C57.5838 6.53809 57.4672 6.61679 57.366 6.71798C57.2648 6.81636 57.1847 6.93442 57.1257 7.07215C57.0694 7.20988 57.0413 7.36166 57.0413 7.5275C57.0413 7.7102 57.0807 7.87182 57.1594 8.01236C57.2409 8.1529 57.3505 8.26252 57.4883 8.34123C57.6288 8.41993 57.789 8.45928 57.9689 8.45928ZM61.5056 9.04955C61.3032 9.04955 61.1121 9.01442 60.9322 8.94415C60.7551 8.87388 60.5977 8.77269 60.46 8.64058C60.3251 8.50847 60.2183 8.34966 60.1396 8.16415C60.0609 7.97863 60.0215 7.77063 60.0215 7.54015C60.0215 7.30123 60.0637 7.07777 60.148 6.86977C60.2351 6.65896 60.3546 6.47485 60.5064 6.31744C60.661 6.15723 60.8409 6.03215 61.0461 5.9422C61.2541 5.85225 61.4803 5.80728 61.7249 5.80728C61.9497 5.80728 62.1507 5.84523 62.3278 5.92112C62.5049 5.99701 62.6524 6.0982 62.7705 6.22469C62.8885 6.35117 62.9686 6.49171 63.0108 6.64631L62.4121 6.92458C62.3671 6.77279 62.2814 6.64771 62.1549 6.54933C62.0312 6.44815 61.871 6.39755 61.6743 6.39755C61.5281 6.39755 61.3946 6.42566 61.2737 6.48188C61.1529 6.53809 61.0475 6.61679 60.9575 6.71798C60.8676 6.81917 60.7973 6.93723 60.7467 7.07215C60.6989 7.20706 60.675 7.35323 60.675 7.51063C60.675 7.70177 60.7116 7.86901 60.7846 8.01236C60.8577 8.15571 60.9603 8.26674 61.0924 8.34544C61.2245 8.42133 61.3777 8.45928 61.552 8.45928C61.6982 8.45928 61.8331 8.43258 61.9568 8.37917C62.0804 8.32296 62.183 8.24285 62.2645 8.13885C62.3461 8.03485 62.3952 7.90977 62.4121 7.7636L62.4458 7.5022L62.7283 7.75517H61.5899L61.6279 7.20706H63.1246L63.0867 7.62447C63.0642 7.86339 63.0052 8.07279 62.9096 8.25269C62.8141 8.42977 62.6932 8.57733 62.547 8.69539C62.4009 8.81344 62.2378 8.90198 62.0579 8.96101C61.8809 9.02004 61.6968 9.04955 61.5056 9.04955ZM64.9275 9.04955C64.6998 9.04955 64.489 9.0116 64.295 8.93571C64.1039 8.85982 63.9367 8.75301 63.7933 8.61528C63.6528 8.47755 63.5432 8.31733 63.4644 8.13463C63.3857 7.94912 63.3464 7.74674 63.3464 7.5275C63.3464 7.28296 63.3914 7.05669 63.4813 6.84869C63.5713 6.64069 63.6963 6.45939 63.8566 6.30479C64.0168 6.14739 64.2023 6.02512 64.4131 5.93798C64.6267 5.85085 64.8572 5.80728 65.1046 5.80728C65.335 5.80728 65.5459 5.84523 65.737 5.92112C65.9309 5.99701 66.0982 6.10382 66.2387 6.24155C66.3821 6.37647 66.4917 6.53669 66.5676 6.7222C66.6463 6.9049 66.6856 7.10447 66.6856 7.3209C66.6856 7.56544 66.6407 7.79312 66.5507 8.00393C66.4608 8.21193 66.3343 8.39463 66.1713 8.55204C66.011 8.70944 65.8241 8.83171 65.6105 8.91885C65.3997 9.00598 65.172 9.04955 64.9275 9.04955ZM64.9275 8.45928C65.0793 8.45928 65.2212 8.43117 65.3533 8.37496C65.4882 8.31874 65.6063 8.24004 65.7075 8.13885C65.8087 8.03766 65.8874 7.9182 65.9436 7.78047C66.0026 7.63993 66.0321 7.48815 66.0321 7.32512C66.0321 7.13961 65.9914 6.97798 65.9099 6.84025C65.8312 6.69971 65.7215 6.5915 65.581 6.51561C65.4433 6.4369 65.2844 6.39755 65.1046 6.39755C64.9528 6.39755 64.8094 6.42566 64.6745 6.48188C64.5424 6.53809 64.4257 6.61679 64.3246 6.71798C64.2234 6.81636 64.1433 6.93442 64.0842 7.07215C64.028 7.20988 63.9999 7.36166 63.9999 7.5275C63.9999 7.7102 64.0393 7.87182 64.118 8.01236C64.1995 8.1529 64.3091 8.26252 64.4468 8.34123C64.5874 8.41993 64.7476 8.45928 64.9275 8.45928Z" fill="white"/>
<mask id="mask0_2004_2650" style="mask-type:alpha" maskUnits="userSpaceOnUse" x="0" y="0" width="72" height="42">
<path d="M62.6279 0.99425C67.0446 0.994867 69.2529 0.995176 70.625 2.35932C71.9971 3.72347 71.9971 5.91872 71.9971 10.3092V32.6086C71.9971 36.9991 71.9971 39.1943 70.625 40.5581C69.2529 41.9218 67.0446 41.9215 62.6279 41.9209L9.36928 41.9135C4.95261 41.9129 2.74427 41.9125 1.37218 40.5484C9.91821e-05 39.1843 9.91821e-05 36.989 9.91821e-05 32.5985V10.2992C9.91821e-05 5.90865 9.91821e-05 3.7134 1.37218 2.34964C2.74427 0.985879 4.95261 0.986188 9.36928 0.986805L62.6279 0.99425Z" fill="url(#paint3_linear_2004_2650)"/>
</mask>
<g mask="url(#mask0_2004_2650)">
<g opacity="0.5">
<g opacity="0.2" filter="url(#filter0_b_2004_2650)">
<path d="M-2.05413 -6.1876C-0.139511 -8.0728 2.9647 -8.07229 4.87933 -6.18645L58.155 46.2883C60.0696 48.1741 60.0696 51.2312 58.155 53.1164L43.1942 67.8473C41.2796 69.7325 38.1754 69.7319 36.2608 67.8461L-17.0149 15.3714C-18.9295 13.4855 -18.9295 10.4285 -17.0149 8.54328L-2.05413 -6.1876Z" fill="url(#paint4_linear_2004_2650)"/>
</g>
<g opacity="0.2" filter="url(#filter1_b_2004_2650)">
<path d="M-9.17517 0.81393C-7.25977 -1.0705 -4.15429 -1.06999 -2.23889 0.815083L51.0584 53.2685C52.9738 55.1535 52.9739 58.2093 51.0584 60.0938L36.0916 74.8186C34.1762 76.7031 31.0707 76.7026 29.1553 74.8175L-24.142 22.3641C-26.0574 20.479 -26.0574 17.4232 -24.142 15.5388L-9.17517 0.81393Z" fill="url(#paint5_linear_2004_2650)"/>
</g>
</g>
<path d="M28.5073 48.8793C27.025 49.7351 25.5427 50.1909 24.0604 50.2468C22.5782 50.3026 21.2122 49.9818 19.9624 49.2843C18.7207 48.5563 17.692 47.4861 16.8764 46.0735L13.1223 39.5716C12.3067 38.159 11.8941 36.7331 11.8844 35.2938C11.8941 33.8434 12.2992 32.5001 13.0999 31.2638C13.8894 30.0082 15.0253 28.9525 16.5077 28.0967C17.9709 27.252 19.4283 26.7976 20.8801 26.7335C22.3512 26.6583 23.6852 26.9459 24.8823 27.5965C26.0874 28.2166 27.0419 29.1362 27.7458 30.3553L27.8631 30.5585C27.919 30.6552 27.9307 30.7645 27.8984 30.8864C27.8742 30.9778 27.8139 31.0513 27.7177 31.1069L24.339 33.0574C24.2427 33.113 24.1393 33.134 24.0288 33.1204C23.9263 33.0763 23.8472 33.0059 23.7913 32.9092L23.7411 32.8221C23.2271 31.932 22.4889 31.3648 21.5265 31.1206C20.5529 30.857 19.5559 31.0198 18.5356 31.6088C17.496 32.209 16.8485 33.0214 16.593 34.0461C16.3457 35.0403 16.5237 36.0599 17.127 37.1049L21.0152 43.8389C21.6185 44.8838 22.447 45.5407 23.5007 45.8097C24.5432 46.0592 25.5843 45.8839 26.6239 45.2838C27.625 44.7058 28.2731 43.9833 28.5682 43.1163C28.8522 42.23 28.7204 41.3127 28.173 40.3645L27.4188 39.0583C27.3629 38.9616 27.2869 38.941 27.1906 38.9966L23.9563 40.8638C23.8601 40.9193 23.7567 40.9403 23.6461 40.9267C23.5437 40.8827 23.4645 40.8123 23.4087 40.7155L21.8668 38.0451C21.811 37.9484 21.7951 37.8543 21.8194 37.7629C21.8517 37.6411 21.916 37.5523 22.0122 37.4968L29.0584 33.4289C29.1547 33.3734 29.254 33.3676 29.3565 33.4117C29.467 33.4253 29.5502 33.4804 29.6061 33.5772L31.8183 37.4086C32.6674 38.8793 33.0968 40.3342 33.1064 41.7735C33.116 43.2128 32.7205 44.5506 31.9198 45.7869C31.1272 46.9927 29.9897 48.0235 28.5073 48.8793Z" fill="url(#paint6_linear_2004_2650)"/>
<g opacity="0.5">
<g opacity="0.2" filter="url(#filter2_b_2004_2650)">
<path d="M-16.294 7.81572C-14.3785 5.93139 -11.2729 5.93191 -9.35737 7.81687L43.9429 60.2674C45.8584 62.1524 45.8584 65.208 43.9429 67.0923L28.9752 81.8164C27.0597 83.7007 23.9541 83.7002 22.0386 81.8153L-31.2617 29.3647C-33.1772 27.4798 -33.1772 24.4241 -31.2617 22.5398L-16.294 7.81572Z" fill="url(#paint7_linear_2004_2650)"/>
</g>
<g opacity="0.2" filter="url(#filter3_b_2004_2650)">
<path d="M-23.4134 14.8192C-21.4979 12.9348 -18.3923 12.9354 -16.4768 14.8203L36.8235 67.2709C38.739 69.1558 38.739 72.2114 36.8235 74.0958L21.8558 88.8199C19.9403 90.7042 16.8347 90.7037 14.9192 88.8187L-38.3811 36.3682C-40.2966 34.4832 -40.2966 31.4276 -38.3811 29.5433L-23.4134 14.8192Z" fill="url(#paint8_linear_2004_2650)"/>
</g>
</g>
</g>
<defs>
<filter id="filter0_b_2004_2650" x="-24.1117" y="-13.2619" width="89.3633" height="88.1836" filterUnits="userSpaceOnUse" color-interpolation-filters="sRGB">
<feFlood flood-opacity="0" result="BackgroundImageFix"/>
<feGaussianBlur in="BackgroundImageFix" stdDeviation="2.83039"/>
<feComposite in2="SourceAlpha" operator="in" result="effect1_backgroundBlur_2004_2650"/>
<feBlend mode="normal" in="SourceGraphic" in2="effect1_backgroundBlur_2004_2650" result="shape"/>
</filter>
<filter id="filter1_b_2004_2650" x="-31.2394" y="-6.25984" width="89.3953" height="88.1523" filterUnits="userSpaceOnUse" color-interpolation-filters="sRGB">
<feFlood flood-opacity="0" result="BackgroundImageFix"/>
<feGaussianBlur in="BackgroundImageFix" stdDeviation="2.83039"/>
<feComposite in2="SourceAlpha" operator="in" result="effect1_backgroundBlur_2004_2650"/>
<feBlend mode="normal" in="SourceGraphic" in2="effect1_backgroundBlur_2004_2650" result="shape"/>
</filter>
<filter id="filter2_b_2004_2650" x="-38.359" y="0.742024" width="89.3992" height="88.1481" filterUnits="userSpaceOnUse" color-interpolation-filters="sRGB">
<feFlood flood-opacity="0" result="BackgroundImageFix"/>
<feGaussianBlur in="BackgroundImageFix" stdDeviation="2.83039"/>
<feComposite in2="SourceAlpha" operator="in" result="effect1_backgroundBlur_2004_2650"/>
<feBlend mode="normal" in="SourceGraphic" in2="effect1_backgroundBlur_2004_2650" result="shape"/>
</filter>
<filter id="filter3_b_2004_2650" x="-45.4784" y="7.74548" width="89.3992" height="88.1481" filterUnits="userSpaceOnUse" color-interpolation-filters="sRGB">
<feFlood flood-opacity="0" result="BackgroundImageFix"/>
<feGaussianBlur in="BackgroundImageFix" stdDeviation="2.83039"/>
<feComposite in2="SourceAlpha" operator="in" result="effect1_backgroundBlur_2004_2650"/>
<feBlend mode="normal" in="SourceGraphic" in2="effect1_backgroundBlur_2004_2650" result="shape"/>
</filter>
<linearGradient id="paint0_linear_2004_2650" x1="65.7528" y1="5.1544" x2="-0.58186" y2="53.9583" gradientUnits="userSpaceOnUse">
<stop stop-color="#44339B"/>
<stop offset="1" stop-color="#A5BCFC"/>
</linearGradient>
<linearGradient id="paint1_linear_2004_2650" x1="68.3126" y1="3.84102" x2="0.54262" y2="57.9895" gradientUnits="userSpaceOnUse">
<stop stop-color="#44339B"/>
<stop offset="1" stop-color="#A5BCFC"/>
</linearGradient>
<linearGradient id="paint2_linear_2004_2650" x1="70.8721" y1="1.00755" x2="0.704336" y2="60.0381" gradientUnits="userSpaceOnUse">
<stop stop-color="#44339B"/>
<stop offset="1" stop-color="#A5BCFC"/>
</linearGradient>
<linearGradient id="paint3_linear_2004_2650" x1="70.8721" y1="0.995402" x2="0.56536" y2="60.0017" gradientUnits="userSpaceOnUse">
<stop stop-color="#9A18FF"/>
<stop offset="1" stop-color="#FF888C"/>
</linearGradient>
<linearGradient id="paint4_linear_2004_2650" x1="31.5171" y1="20.0509" x2="9.95818" y2="41.9389" gradientUnits="userSpaceOnUse">
<stop stop-color="white" stop-opacity="0.5"/>
<stop offset="1" stop-color="white" stop-opacity="0"/>
</linearGradient>
<linearGradient id="paint5_linear_2004_2650" x1="24.4098" y1="27.0418" x2="2.85986" y2="48.9384" gradientUnits="userSpaceOnUse">
<stop stop-color="white" stop-opacity="0.5"/>
<stop offset="1" stop-color="white" stop-opacity="0"/>
</linearGradient>
<linearGradient id="paint6_linear_2004_2650" x1="16.4788" y1="28.1134" x2="28.4773" y2="48.8966" gradientUnits="userSpaceOnUse">
<stop stop-color="white" stop-opacity="0.6"/>
<stop offset="1" stop-color="white" stop-opacity="0"/>
</linearGradient>
<linearGradient id="paint7_linear_2004_2650" x1="17.2928" y1="34.0421" x2="-4.25595" y2="55.9399" gradientUnits="userSpaceOnUse">
<stop stop-color="white" stop-opacity="0.5"/>
<stop offset="1" stop-color="white" stop-opacity="0"/>
</linearGradient>
<linearGradient id="paint8_linear_2004_2650" x1="10.1734" y1="41.0456" x2="-11.3753" y2="62.9434" gradientUnits="userSpaceOnUse">
<stop stop-color="white" stop-opacity="0.5"/>
<stop offset="1" stop-color="white" stop-opacity="0"/>
</linearGradient>
</defs>
</svg>
